<svg width="261" height="73" viewBox="0 0 261 73" fill="none" xmlns="http://www.w3.org/2000/svg">
<g filter="url(#filter0_d_33_41)">
<rect x="31" y="5" width="221" height="32.6309" rx="8" fill="#F4F4F4"/>
<path d="M54.47 26.3154V15.8154H58.745C59.315 15.8154 59.83 15.9604 60.29 16.2504C60.76 16.5304 61.135 16.9154 61.415 17.4054C61.695 17.8954 61.835 18.4404 61.835 19.0404C61.835 19.6404 61.695 20.1854 61.415 20.6754C61.135 21.1654 60.76 21.5604 60.29 21.8604C59.83 22.1504 59.315 22.2954 58.745 22.2954H56.09V26.3154H54.47ZM56.09 20.7354H58.715C58.985 20.7354 59.23 20.6604 59.45 20.5104C59.67 20.3504 59.845 20.1454 59.975 19.8954C60.115 19.6354 60.185 19.3504 60.185 19.0404C60.185 18.7304 60.115 18.4504 59.975 18.2004C59.845 17.9504 59.67 17.7504 59.45 17.6004C59.23 17.4504 58.985 17.3754 58.715 17.3754H56.09V20.7354ZM67.5654 26.4654C66.7554 26.4654 66.0354 26.2954 65.4054 25.9554C64.7854 25.6054 64.2954 25.1304 63.9354 24.5304C63.5854 23.9304 63.4104 23.2404 63.4104 22.4604C63.4104 21.8404 63.5104 21.2754 63.7104 20.7654C63.9104 20.2554 64.1854 19.8154 64.5354 19.4454C64.8954 19.0654 65.3204 18.7754 65.8104 18.5754C66.3104 18.3654 66.8504 18.2604 67.4304 18.2604C67.9404 18.2604 68.4154 18.3604 68.8554 18.5604C69.2954 18.7504 69.6754 19.0154 69.9954 19.3554C70.3254 19.6954 70.5754 20.1004 70.7454 20.5704C70.9254 21.0304 71.0104 21.5354 71.0004 22.0854L70.9854 22.7454H64.5504L64.2054 21.5154H69.6504L69.4254 21.7704V21.4104C69.3954 21.0804 69.2854 20.7854 69.0954 20.5254C68.9054 20.2654 68.6654 20.0604 68.3754 19.9104C68.0854 19.7604 67.7704 19.6854 67.4304 19.6854C66.8904 19.6854 66.4354 19.7904 66.0654 20.0004C65.6954 20.2004 65.4154 20.5004 65.2254 20.9004C65.0354 21.2904 64.9404 21.7754 64.9404 22.3554C64.9404 22.9054 65.0554 23.3854 65.2854 23.7954C65.5154 24.1954 65.8404 24.5054 66.2604 24.7254C66.6804 24.9454 67.1654 25.0554 67.7154 25.0554C68.1054 25.0554 68.4654 24.9904 68.7954 24.8604C69.1354 24.7304 69.5004 24.4954 69.8904 24.1554L70.6704 25.2504C70.4304 25.4904 70.1354 25.7004 69.7854 25.8804C69.4454 26.0604 69.0804 26.2054 68.6904 26.3154C68.3104 26.4154 67.9354 26.4654 67.5654 26.4654ZM73.1294 26.3154V18.4404H74.6894V20.9154L74.5394 20.3154C74.6494 19.9354 74.8344 19.5904 75.0944 19.2804C75.3644 18.9704 75.6694 18.7254 76.0094 18.5454C76.3594 18.3654 76.7194 18.2754 77.0894 18.2754C77.2594 18.2754 77.4194 18.2904 77.5694 18.3204C77.7294 18.3504 77.8544 18.3854 77.9444 18.4254L77.5394 20.1054C77.4194 20.0554 77.2844 20.0154 77.1344 19.9854C76.9944 19.9454 76.8544 19.9254 76.7144 19.9254C76.4444 19.9254 76.1844 19.9804 75.9344 20.0904C75.6944 20.1904 75.4794 20.3354 75.2894 20.5254C75.1094 20.7054 74.9644 20.9204 74.8544 21.1704C74.7444 21.4104 74.6894 21.6754 74.6894 21.9654V26.3154H73.1294ZM82.2542 26.4654C81.5942 26.4654 80.9992 26.3504 80.4692 26.1204C79.9392 25.8904 79.4992 25.5504 79.1492 25.1004L80.1992 24.2004C80.4992 24.5504 80.8242 24.8054 81.1742 24.9654C81.5342 25.1154 81.9392 25.1904 82.3892 25.1904C82.5692 25.1904 82.7342 25.1704 82.8842 25.1304C83.0442 25.0804 83.1792 25.0104 83.2892 24.9204C83.4092 24.8304 83.4992 24.7254 83.5592 24.6054C83.6192 24.4754 83.6492 24.3354 83.6492 24.1854C83.6492 23.9254 83.5542 23.7154 83.3642 23.5554C83.2642 23.4854 83.1042 23.4104 82.8842 23.3304C82.6742 23.2404 82.3992 23.1504 82.0592 23.0604C81.4792 22.9104 81.0042 22.7404 80.6342 22.5504C80.2642 22.3604 79.9792 22.1454 79.7792 21.9054C79.6292 21.7154 79.5192 21.5104 79.4492 21.2904C79.3792 21.0604 79.3442 20.8104 79.3442 20.5404C79.3442 20.2104 79.4142 19.9104 79.5542 19.6404C79.7042 19.3604 79.9042 19.1204 80.1542 18.9204C80.4142 18.7104 80.7142 18.5504 81.0542 18.4404C81.4042 18.3304 81.7742 18.2754 82.1642 18.2754C82.5342 18.2754 82.8992 18.3254 83.2592 18.4254C83.6292 18.5254 83.9692 18.6704 84.2792 18.8604C84.5892 19.0504 84.8492 19.2754 85.0592 19.5354L84.1742 20.5104C83.9842 20.3204 83.7742 20.1554 83.5442 20.0154C83.3242 19.8654 83.0992 19.7504 82.8692 19.6704C82.6392 19.5904 82.4292 19.5504 82.2392 19.5504C82.0292 19.5504 81.8392 19.5704 81.6692 19.6104C81.4992 19.6504 81.3542 19.7104 81.2342 19.7904C81.1242 19.8704 81.0392 19.9704 80.9792 20.0904C80.9192 20.2104 80.8892 20.3454 80.8892 20.4954C80.8992 20.6254 80.9292 20.7504 80.9792 20.8704C81.0392 20.9804 81.1192 21.0754 81.2192 21.1554C81.3292 21.2354 81.4942 21.3204 81.7142 21.4104C81.9342 21.5004 82.2142 21.5854 82.5542 21.6654C83.0542 21.7954 83.4642 21.9404 83.7842 22.1004C84.1142 22.2504 84.3742 22.4254 84.5642 22.6254C84.7642 22.8154 84.9042 23.0354 84.9842 23.2854C85.0642 23.5354 85.1042 23.8154 85.1042 24.1254C85.1042 24.5754 84.9742 24.9804 84.7142 25.3404C84.4642 25.6904 84.1242 25.9654 83.6942 26.1654C83.2642 26.3654 82.7842 26.4654 82.2542 26.4654ZM90.797 26.4654C90.027 26.4654 89.337 26.2904 88.727 25.9404C88.127 25.5804 87.652 25.0954 87.302 24.4854C86.952 23.8654 86.777 23.1604 86.777 22.3704C86.777 21.5804 86.952 20.8804 87.302 20.2704C87.652 19.6504 88.127 19.1654 88.727 18.8154C89.337 18.4554 90.027 18.2754 90.797 18.2754C91.557 18.2754 92.237 18.4554 92.837 18.8154C93.447 19.1654 93.927 19.6504 94.277 20.2704C94.627 20.8804 94.802 21.5804 94.802 22.3704C94.802 23.1604 94.627 23.8654 94.277 24.4854C93.927 25.0954 93.447 25.5804 92.837 25.9404C92.237 26.2904 91.557 26.4654 90.797 26.4654ZM90.797 25.0554C91.267 25.0554 91.687 24.9404 92.057 24.7104C92.427 24.4704 92.717 24.1504 92.927 23.7504C93.137 23.3404 93.237 22.8804 93.227 22.3704C93.237 21.8504 93.137 21.3904 92.927 20.9904C92.717 20.5804 92.427 20.2604 92.057 20.0304C91.687 19.8004 91.267 19.6854 90.797 19.6854C90.327 19.6854 89.902 19.8054 89.522 20.0454C89.152 20.2754 88.862 20.5954 88.652 21.0054C88.442 21.4054 88.342 21.8604 88.352 22.3704C88.342 22.8804 88.442 23.3404 88.652 23.7504C88.862 24.1504 89.152 24.4704 89.522 24.7104C89.902 24.9404 90.327 25.0554 90.797 25.0554ZM96.9355 26.3154V18.4404H98.4805V20.0604L98.2105 20.2404C98.3105 19.8904 98.5055 19.5704 98.7955 19.2804C99.0855 18.9804 99.4305 18.7404 99.8305 18.5604C100.23 18.3704 100.64 18.2754 101.06 18.2754C101.66 18.2754 102.16 18.3954 102.56 18.6354C102.96 18.8654 103.26 19.2204 103.46 19.7004C103.66 20.1804 103.76 20.7854 103.76 21.5154V26.3154H102.215V21.6204C102.215 21.1704 102.155 20.8004 102.035 20.5104C101.915 20.2104 101.73 19.9954 101.48 19.8654C101.23 19.7254 100.92 19.6654 100.55 19.6854C100.25 19.6854 99.9755 19.7354 99.7255 19.8354C99.4755 19.9254 99.2555 20.0554 99.0655 20.2254C98.8855 20.3954 98.7405 20.5954 98.6305 20.8254C98.5305 21.0454 98.4805 21.2854 98.4805 21.5454V26.3154H97.7155C97.5855 26.3154 97.4555 26.3154 97.3255 26.3154C97.1955 26.3154 97.0655 26.3154 96.9355 26.3154ZM109.336 26.4654C108.686 26.4654 108.091 26.2854 107.551 25.9254C107.021 25.5654 106.596 25.0754 106.276 24.4554C105.956 23.8354 105.796 23.1354 105.796 22.3554C105.796 21.5654 105.956 20.8654 106.276 20.2554C106.606 19.6354 107.046 19.1504 107.596 18.8004C108.156 18.4504 108.781 18.2754 109.471 18.2754C109.881 18.2754 110.256 18.3354 110.596 18.4554C110.936 18.5754 111.231 18.7454 111.481 18.9654C111.741 19.1754 111.951 19.4204 112.111 19.7004C112.281 19.9804 112.386 20.2804 112.426 20.6004L112.081 20.4804V18.4404H113.641V26.3154H112.081V24.4404L112.441 24.3354C112.381 24.6054 112.256 24.8704 112.066 25.1304C111.886 25.3804 111.651 25.6054 111.361 25.8054C111.081 26.0054 110.766 26.1654 110.416 26.2854C110.076 26.4054 109.716 26.4654 109.336 26.4654ZM109.741 25.0404C110.211 25.0404 110.626 24.9254 110.986 24.6954C111.346 24.4654 111.626 24.1504 111.826 23.7504C112.036 23.3404 112.141 22.8754 112.141 22.3554C112.141 21.8454 112.036 21.3904 111.826 20.9904C111.626 20.5904 111.346 20.2754 110.986 20.0454C110.626 19.8154 110.211 19.7004 109.741 19.7004C109.281 19.7004 108.871 19.8154 108.511 20.0454C108.161 20.2754 107.881 20.5904 107.671 20.9904C107.471 21.3904 107.371 21.8454 107.371 22.3554C107.371 22.8754 107.471 23.3404 107.671 23.7504C107.881 24.1504 108.161 24.4654 108.511 24.6954C108.871 24.9254 109.281 25.0404 109.741 25.0404ZM116.279 26.3154V15.2154H117.824V26.3154H116.279Z" fill="#4E4444"/>
<rect opacity="0.9" x="225.302" y="15.3826" width="17.7987" height="11.8658" rx="5.93289" fill="#EBEBEB"/>
<path d="M234.257 26.8657L234.217 26.7657L236.297 22.3457L236.327 23.1757C236.207 23.3757 236.073 23.5524 235.927 23.7057C235.787 23.8591 235.63 23.9924 235.457 24.1057C235.29 24.2124 235.117 24.2957 234.937 24.3557C234.757 24.4091 234.573 24.4357 234.387 24.4357C234.007 24.4357 233.657 24.3357 233.337 24.1357C233.017 23.9357 232.76 23.6691 232.567 23.3357C232.373 23.0024 232.277 22.6391 232.277 22.2457C232.277 21.7724 232.383 21.3491 232.597 20.9757C232.81 20.5957 233.1 20.2957 233.467 20.0757C233.84 19.8557 234.257 19.7457 234.717 19.7457C235.05 19.7457 235.363 19.8057 235.657 19.9257C235.95 20.0457 236.207 20.2157 236.427 20.4357C236.647 20.6491 236.82 20.8991 236.947 21.1857C237.073 21.4657 237.137 21.7657 237.137 22.0857C237.137 22.2524 237.12 22.4324 237.087 22.6257C237.053 22.8124 236.997 23.0257 236.917 23.2657C236.843 23.4991 236.743 23.7691 236.617 24.0757C236.49 24.3757 236.333 24.7257 236.147 25.1257L235.317 26.8657H234.257ZM234.617 23.4357C234.877 23.4357 235.11 23.3791 235.317 23.2657C235.523 23.1457 235.683 22.9891 235.797 22.7957C235.917 22.5957 235.977 22.3724 235.977 22.1257C235.977 21.8657 235.92 21.6324 235.807 21.4257C235.693 21.2124 235.533 21.0457 235.327 20.9257C235.127 20.8057 234.897 20.7457 234.637 20.7457C234.397 20.7457 234.183 20.8057 233.997 20.9257C233.81 21.0391 233.66 21.1991 233.547 21.4057C233.44 21.6057 233.387 21.8424 233.387 22.1157C233.387 22.3491 233.44 22.5657 233.547 22.7657C233.66 22.9657 233.81 23.1291 233.997 23.2557C234.183 23.3757 234.39 23.4357 234.617 23.4357Z" fill="#4E4444"/>
<rect x="38.4161" y="16.8657" width="8.89933" height="8.89933" rx="3" fill="#FF6B6B"/>
</g>
<defs>
<filter id="filter0_d_33_41" x="0" y="0" width="261" height="72.6309" filterUnits="userSpaceOnUse" color-interpolation-filters="sRGB">
<feFlood flood-opacity="0" result="BackgroundImageFix"/>
<feColorMatrix in="SourceAlpha" type="matrix" values="0 0 0 0 0 0 0 0 0 0 0 0 0 0 0 0 0 0 127 0" result="hardAlpha"/>
<feOffset dx="-11" dy="15"/>
<feGaussianBlur stdDeviation="10"/>
<feComposite in2="hardAlpha" operator="out"/>
<feColorMatrix type="matrix" values="0 0 0 0 0 0 0 0 0 0 0 0 0 0 0 0 0 0 0.11 0"/>
<feBlend mode="normal" in2="BackgroundImageFix" result="effect1_dropShadow_33_41"/>
<feBlend mode="normal" in="SourceGraphic" in2="effect1_dropShadow_33_41" result="shape"/>
</filter>
</defs>
</svg>
