<svg width="404" height="86" viewBox="0 0 404 86" fill="none" xmlns="http://www.w3.org/2000/svg">
<g filter="url(#filter0_d_33_69)">
<rect x="31" y="6" width="364" height="45.2348" rx="8" fill="#FAFAFA"/>
<path d="M63.083 34.13C62.4417 34.13 61.848 34.013 61.302 33.779C60.7647 33.545 60.2923 33.22 59.885 32.804C59.4863 32.3793 59.1743 31.8853 58.949 31.322C58.7323 30.75 58.624 30.126 58.624 29.45C58.624 28.774 58.7323 28.1543 58.949 27.591C59.1743 27.019 59.4863 26.525 59.885 26.109C60.2923 25.6843 60.7647 25.355 61.302 25.121C61.848 24.887 62.4417 24.77 63.083 24.77C63.7243 24.77 64.3137 24.887 64.851 25.121C65.397 25.355 65.8693 25.6843 66.268 26.109C66.6753 26.5337 66.9873 27.032 67.204 27.604C67.4293 28.1673 67.542 28.7827 67.542 29.45C67.542 30.1173 67.4293 30.737 67.204 31.309C66.9873 31.8723 66.6753 32.3663 66.268 32.791C65.8693 33.2157 65.397 33.545 64.851 33.779C64.3137 34.013 63.7243 34.13 63.083 34.13ZM63.083 32.765C63.525 32.765 63.928 32.6827 64.292 32.518C64.6647 32.3533 64.9853 32.1237 65.254 31.829C65.5227 31.5257 65.7307 31.1747 65.878 30.776C66.034 30.3687 66.112 29.9267 66.112 29.45C66.112 28.9733 66.034 28.5357 65.878 28.137C65.7307 27.7297 65.5227 27.3787 65.254 27.084C64.9853 26.7807 64.6647 26.5467 64.292 26.382C63.928 26.2173 63.525 26.135 63.083 26.135C62.641 26.135 62.2337 26.2173 61.861 26.382C61.497 26.5467 61.1763 26.7763 60.899 27.071C60.6303 27.3657 60.4223 27.7167 60.275 28.124C60.1277 28.5227 60.054 28.9647 60.054 29.45C60.054 29.9267 60.1277 30.3687 60.275 30.776C60.4223 31.1833 60.6303 31.5343 60.899 31.829C61.1763 32.1237 61.497 32.3533 61.861 32.518C62.2337 32.6827 62.641 32.765 63.083 32.765ZM69.4949 34V27.175H70.8469V29.32L70.7169 28.8C70.8123 28.4707 70.9726 28.1717 71.1979 27.903C71.4319 27.6343 71.6963 27.422 71.9909 27.266C72.2943 27.11 72.6063 27.032 72.9269 27.032C73.0743 27.032 73.2129 27.045 73.3429 27.071C73.4816 27.097 73.5899 27.1273 73.6679 27.162L73.3169 28.618C73.2129 28.5747 73.0959 28.54 72.9659 28.514C72.8446 28.4793 72.7233 28.462 72.6019 28.462C72.3679 28.462 72.1426 28.5097 71.9259 28.605C71.7179 28.6917 71.5316 28.8173 71.3669 28.982C71.2109 29.138 71.0853 29.3243 70.9899 29.541C70.8946 29.749 70.8469 29.9787 70.8469 30.23V34H69.4949ZM77.9927 36.99C77.5073 36.99 77.022 36.912 76.5367 36.756C76.06 36.6087 75.6743 36.4137 75.3797 36.171L75.8737 35.131C76.047 35.261 76.2507 35.3737 76.4847 35.469C76.7187 35.573 76.9657 35.651 77.2257 35.703C77.4857 35.7637 77.7413 35.794 77.9927 35.794C78.4693 35.794 78.868 35.716 79.1887 35.56C79.5093 35.404 79.752 35.1743 79.9167 34.871C80.0813 34.5677 80.1637 34.1907 80.1637 33.74V32.427L80.3067 32.518C80.2633 32.7867 80.1203 33.0467 79.8777 33.298C79.6437 33.5407 79.349 33.74 78.9937 33.896C78.6383 34.052 78.2743 34.13 77.9017 34.13C77.2517 34.13 76.671 33.9783 76.1597 33.675C75.657 33.363 75.2583 32.9427 74.9637 32.414C74.669 31.8767 74.5217 31.2657 74.5217 30.581C74.5217 29.8963 74.6647 29.2897 74.9507 28.761C75.2453 28.2237 75.644 27.8033 76.1467 27.5C76.658 27.188 77.23 27.032 77.8627 27.032C78.1227 27.032 78.374 27.0667 78.6167 27.136C78.8593 27.1967 79.0847 27.2877 79.2927 27.409C79.5007 27.5217 79.687 27.6473 79.8517 27.786C80.0163 27.9247 80.1507 28.072 80.2547 28.228C80.3587 28.384 80.4237 28.5313 80.4497 28.67L80.1637 28.774V27.175H81.5027V33.584C81.5027 34.13 81.4203 34.611 81.2557 35.027C81.0997 35.4517 80.87 35.807 80.5667 36.093C80.2633 36.3877 79.895 36.6087 79.4617 36.756C79.0283 36.912 78.5387 36.99 77.9927 36.99ZM78.0447 32.895C78.4693 32.895 78.8463 32.7953 79.1757 32.596C79.505 32.3967 79.7607 32.1237 79.9427 31.777C80.1247 31.4303 80.2157 31.0317 80.2157 30.581C80.2157 30.1303 80.1203 29.7317 79.9297 29.385C79.7477 29.0297 79.492 28.7523 79.1627 28.553C78.842 28.3537 78.4693 28.254 78.0447 28.254C77.6287 28.254 77.256 28.358 76.9267 28.566C76.606 28.7653 76.3503 29.0427 76.1597 29.398C75.9777 29.7447 75.8867 30.139 75.8867 30.581C75.8867 31.023 75.9777 31.4217 76.1597 31.777C76.3503 32.1237 76.606 32.3967 76.9267 32.596C77.256 32.7953 77.6287 32.895 78.0447 32.895ZM86.3961 34.13C85.8327 34.13 85.3171 33.974 84.8491 33.662C84.3897 33.35 84.0214 32.9253 83.7441 32.388C83.4667 31.8507 83.3281 31.244 83.3281 30.568C83.3281 29.8833 83.4667 29.2767 83.7441 28.748C84.0301 28.2107 84.4114 27.7903 84.8881 27.487C85.3734 27.1837 85.9151 27.032 86.5131 27.032C86.8684 27.032 87.1934 27.084 87.4881 27.188C87.7827 27.292 88.0384 27.4393 88.2551 27.63C88.4804 27.812 88.6624 28.0243 88.8011 28.267C88.9484 28.5097 89.0394 28.7697 89.0741 29.047L88.7751 28.943V27.175H90.1271V34H88.7751V32.375L89.0871 32.284C89.0351 32.518 88.9267 32.7477 88.7621 32.973C88.6061 33.1897 88.4024 33.3847 88.1511 33.558C87.9084 33.7313 87.6354 33.87 87.3321 33.974C87.0374 34.078 86.7254 34.13 86.3961 34.13ZM86.7471 32.895C87.1544 32.895 87.5141 32.7953 87.8261 32.596C88.1381 32.3967 88.3807 32.1237 88.5541 31.777C88.7361 31.4217 88.8271 31.0187 88.8271 30.568C88.8271 30.126 88.7361 29.7317 88.5541 29.385C88.3807 29.0383 88.1381 28.7653 87.8261 28.566C87.5141 28.3667 87.1544 28.267 86.7471 28.267C86.3484 28.267 85.9931 28.3667 85.6811 28.566C85.3777 28.7653 85.1351 29.0383 84.9531 29.385C84.7797 29.7317 84.6931 30.126 84.6931 30.568C84.6931 31.0187 84.7797 31.4217 84.9531 31.777C85.1351 32.1237 85.3777 32.3967 85.6811 32.596C85.9931 32.7953 86.3484 32.895 86.7471 32.895ZM92.3866 34V27.175H93.7256V28.579L93.4916 28.735C93.5783 28.4317 93.7473 28.1543 93.9986 27.903C94.25 27.643 94.549 27.435 94.8956 27.279C95.2423 27.1143 95.5976 27.032 95.9616 27.032C96.4816 27.032 96.915 27.136 97.2616 27.344C97.6083 27.5433 97.8683 27.851 98.0416 28.267C98.215 28.683 98.3016 29.2073 98.3016 29.84V34H96.9626V29.931C96.9626 29.541 96.9106 29.2203 96.8066 28.969C96.7026 28.709 96.5423 28.5227 96.3256 28.41C96.109 28.2887 95.8403 28.2367 95.5196 28.254C95.2596 28.254 95.0213 28.2973 94.8046 28.384C94.588 28.462 94.3973 28.5747 94.2326 28.722C94.0766 28.8693 93.951 29.0427 93.8556 29.242C93.769 29.4327 93.7256 29.6407 93.7256 29.866V34H93.0626C92.95 34 92.8373 34 92.7246 34C92.612 34 92.4993 34 92.3866 34ZM100.729 34V27.175H102.068V34H100.729ZM101.379 25.667C101.093 25.667 100.872 25.5933 100.716 25.446C100.56 25.2987 100.482 25.0907 100.482 24.822C100.482 24.5707 100.56 24.367 100.716 24.211C100.881 24.055 101.102 23.977 101.379 23.977C101.665 23.977 101.886 24.0507 102.042 24.198C102.198 24.3453 102.276 24.5533 102.276 24.822C102.276 25.0733 102.194 25.277 102.029 25.433C101.873 25.589 101.656 25.667 101.379 25.667ZM104.23 34V32.882L107.753 28.176V28.332H104.23V27.175H109.209V28.267L105.738 32.908L105.686 32.843H109.287V34H104.23ZM114.261 34.13C113.559 34.13 112.935 33.9827 112.389 33.688C111.852 33.3847 111.427 32.973 111.115 32.453C110.812 31.933 110.66 31.335 110.66 30.659C110.66 30.1217 110.747 29.632 110.92 29.19C111.093 28.748 111.332 28.3667 111.635 28.046C111.947 27.7167 112.315 27.4653 112.74 27.292C113.173 27.11 113.641 27.019 114.144 27.019C114.586 27.019 114.998 27.1057 115.379 27.279C115.76 27.4437 116.09 27.6733 116.367 27.968C116.653 28.2627 116.87 28.6137 117.017 29.021C117.173 29.4197 117.247 29.8573 117.238 30.334L117.225 30.906H111.648L111.349 29.84H116.068L115.873 30.061V29.749C115.847 29.463 115.752 29.2073 115.587 28.982C115.422 28.7567 115.214 28.579 114.963 28.449C114.712 28.319 114.439 28.254 114.144 28.254C113.676 28.254 113.282 28.345 112.961 28.527C112.64 28.7003 112.398 28.9603 112.233 29.307C112.068 29.645 111.986 30.0653 111.986 30.568C111.986 31.0447 112.086 31.4607 112.285 31.816C112.484 32.1627 112.766 32.4313 113.13 32.622C113.494 32.8127 113.914 32.908 114.391 32.908C114.729 32.908 115.041 32.8517 115.327 32.739C115.622 32.6263 115.938 32.4227 116.276 32.128L116.952 33.077C116.744 33.285 116.488 33.467 116.185 33.623C115.89 33.779 115.574 33.9047 115.236 34C114.907 34.0867 114.582 34.13 114.261 34.13ZM123.091 34V27.175H124.443V28.631L124.196 28.787C124.265 28.5617 124.374 28.345 124.521 28.137C124.677 27.929 124.863 27.747 125.08 27.591C125.305 27.4263 125.544 27.2963 125.795 27.201C126.055 27.1057 126.319 27.058 126.588 27.058C126.978 27.058 127.32 27.123 127.615 27.253C127.91 27.383 128.152 27.578 128.343 27.838C128.534 28.098 128.672 28.423 128.759 28.813L128.551 28.761L128.642 28.54C128.737 28.3407 128.867 28.1543 129.032 27.981C129.205 27.799 129.4 27.6387 129.617 27.5C129.834 27.3613 130.063 27.253 130.306 27.175C130.549 27.097 130.787 27.058 131.021 27.058C131.532 27.058 131.953 27.162 132.282 27.37C132.62 27.578 132.871 27.8943 133.036 28.319C133.209 28.7437 133.296 29.2723 133.296 29.905V34H131.944V29.983C131.944 29.593 131.892 29.2767 131.788 29.034C131.693 28.7827 131.545 28.5963 131.346 28.475C131.147 28.3537 130.891 28.293 130.579 28.293C130.336 28.293 130.107 28.3363 129.89 28.423C129.682 28.501 129.5 28.6137 129.344 28.761C129.188 28.9083 129.067 29.0817 128.98 29.281C128.893 29.4717 128.85 29.684 128.85 29.918V34H127.498V29.957C127.498 29.6017 127.446 29.3027 127.342 29.06C127.238 28.8087 127.086 28.618 126.887 28.488C126.688 28.358 126.445 28.293 126.159 28.293C125.916 28.293 125.691 28.3363 125.483 28.423C125.275 28.501 125.093 28.6137 124.937 28.761C124.781 28.8997 124.66 29.0687 124.573 29.268C124.486 29.4587 124.443 29.6667 124.443 29.892V34H123.091ZM136.559 36.99L137.937 33.805L137.95 34.871L134.544 27.175H136.104L138.236 32.193C138.279 32.2797 138.331 32.414 138.392 32.596C138.453 32.7693 138.505 32.9427 138.548 33.116L138.21 33.194C138.279 33.012 138.344 32.83 138.405 32.648C138.474 32.466 138.539 32.284 138.6 32.102L140.381 27.175H141.967L139.159 34L138.002 36.99H136.559ZM148.237 34V25.433H149.576V34H148.237ZM146.82 28.475V27.175H151.162V28.475H146.82ZM155.334 34.13C154.771 34.13 154.255 33.974 153.787 33.662C153.328 33.35 152.959 32.9253 152.682 32.388C152.405 31.8507 152.266 31.244 152.266 30.568C152.266 29.8833 152.405 29.2767 152.682 28.748C152.968 28.2107 153.349 27.7903 153.826 27.487C154.311 27.1837 154.853 27.032 155.451 27.032C155.806 27.032 156.131 27.084 156.426 27.188C156.721 27.292 156.976 27.4393 157.193 27.63C157.418 27.812 157.6 28.0243 157.739 28.267C157.886 28.5097 157.977 28.7697 158.012 29.047L157.713 28.943V27.175H159.065V34H157.713V32.375L158.025 32.284C157.973 32.518 157.865 32.7477 157.7 32.973C157.544 33.1897 157.34 33.3847 157.089 33.558C156.846 33.7313 156.573 33.87 156.27 33.974C155.975 34.078 155.663 34.13 155.334 34.13ZM155.685 32.895C156.092 32.895 156.452 32.7953 156.764 32.596C157.076 32.3967 157.319 32.1237 157.492 31.777C157.674 31.4217 157.765 31.0187 157.765 30.568C157.765 30.126 157.674 29.7317 157.492 29.385C157.319 29.0383 157.076 28.7653 156.764 28.566C156.452 28.3667 156.092 28.267 155.685 28.267C155.286 28.267 154.931 28.3667 154.619 28.566C154.316 28.7653 154.073 29.0383 153.891 29.385C153.718 29.7317 153.631 30.126 153.631 30.568C153.631 31.0187 153.718 31.4217 153.891 31.777C154.073 32.1237 154.316 32.3967 154.619 32.596C154.931 32.7953 155.286 32.895 155.685 32.895ZM163.6 34.13C163.028 34.13 162.512 34.0303 162.053 33.831C161.593 33.6317 161.212 33.337 160.909 32.947L161.819 32.167C162.079 32.4703 162.36 32.6913 162.664 32.83C162.976 32.96 163.327 33.025 163.717 33.025C163.873 33.025 164.016 33.0077 164.146 32.973C164.284 32.9297 164.401 32.869 164.497 32.791C164.601 32.713 164.679 32.622 164.731 32.518C164.783 32.4053 164.809 32.284 164.809 32.154C164.809 31.9287 164.726 31.7467 164.562 31.608C164.475 31.5473 164.336 31.4823 164.146 31.413C163.964 31.335 163.725 31.257 163.431 31.179C162.928 31.049 162.516 30.9017 162.196 30.737C161.875 30.5723 161.628 30.386 161.455 30.178C161.325 30.0133 161.229 29.8357 161.169 29.645C161.108 29.4457 161.078 29.229 161.078 28.995C161.078 28.709 161.138 28.449 161.26 28.215C161.39 27.9723 161.563 27.7643 161.78 27.591C162.005 27.409 162.265 27.2703 162.56 27.175C162.863 27.0797 163.184 27.032 163.522 27.032C163.842 27.032 164.159 27.0753 164.471 27.162C164.791 27.2487 165.086 27.3743 165.355 27.539C165.623 27.7037 165.849 27.8987 166.031 28.124L165.264 28.969C165.099 28.8043 164.917 28.6613 164.718 28.54C164.527 28.41 164.332 28.3103 164.133 28.241C163.933 28.1717 163.751 28.137 163.587 28.137C163.405 28.137 163.24 28.1543 163.093 28.189C162.945 28.2237 162.82 28.2757 162.716 28.345C162.62 28.4143 162.547 28.501 162.495 28.605C162.443 28.709 162.417 28.826 162.417 28.956C162.425 29.0687 162.451 29.177 162.495 29.281C162.547 29.3763 162.616 29.4587 162.703 29.528C162.798 29.5973 162.941 29.671 163.132 29.749C163.322 29.827 163.565 29.9007 163.86 29.97C164.293 30.0827 164.648 30.2083 164.926 30.347C165.212 30.477 165.437 30.6287 165.602 30.802C165.775 30.9667 165.896 31.1573 165.966 31.374C166.035 31.5907 166.07 31.8333 166.07 32.102C166.07 32.492 165.957 32.843 165.732 33.155C165.515 33.4583 165.22 33.6967 164.848 33.87C164.475 34.0433 164.059 34.13 163.6 34.13ZM169.157 31.868L169.092 30.412L172.355 27.175H174.162L169.157 31.868ZM167.935 34V24.38H169.274V34H167.935ZM172.537 34L169.963 30.997L170.912 30.126L174.253 34H172.537ZM177.926 34.13C177.354 34.13 176.838 34.0303 176.379 33.831C175.919 33.6317 175.538 33.337 175.235 32.947L176.145 32.167C176.405 32.4703 176.686 32.6913 176.99 32.83C177.302 32.96 177.653 33.025 178.043 33.025C178.199 33.025 178.342 33.0077 178.472 32.973C178.61 32.9297 178.727 32.869 178.823 32.791C178.927 32.713 179.005 32.622 179.057 32.518C179.109 32.4053 179.135 32.284 179.135 32.154C179.135 31.9287 179.052 31.7467 178.888 31.608C178.801 31.5473 178.662 31.4823 178.472 31.413C178.29 31.335 178.051 31.257 177.757 31.179C177.254 31.049 176.842 30.9017 176.522 30.737C176.201 30.5723 175.954 30.386 175.781 30.178C175.651 30.0133 175.555 29.8357 175.495 29.645C175.434 29.4457 175.404 29.229 175.404 28.995C175.404 28.709 175.464 28.449 175.586 28.215C175.716 27.9723 175.889 27.7643 176.106 27.591C176.331 27.409 176.591 27.2703 176.886 27.175C177.189 27.0797 177.51 27.032 177.848 27.032C178.168 27.032 178.485 27.0753 178.797 27.162C179.117 27.2487 179.412 27.3743 179.681 27.539C179.949 27.7037 180.175 27.8987 180.357 28.124L179.59 28.969C179.425 28.8043 179.243 28.6613 179.044 28.54C178.853 28.41 178.658 28.3103 178.459 28.241C178.259 28.1717 178.077 28.137 177.913 28.137C177.731 28.137 177.566 28.1543 177.419 28.189C177.271 28.2237 177.146 28.2757 177.042 28.345C176.946 28.4143 176.873 28.501 176.821 28.605C176.769 28.709 176.743 28.826 176.743 28.956C176.751 29.0687 176.777 29.177 176.821 29.281C176.873 29.3763 176.942 29.4587 177.029 29.528C177.124 29.5973 177.267 29.671 177.458 29.749C177.648 29.827 177.891 29.9007 178.186 29.97C178.619 30.0827 178.974 30.2083 179.252 30.347C179.538 30.477 179.763 30.6287 179.928 30.802C180.101 30.9667 180.222 31.1573 180.292 31.374C180.361 31.5907 180.396 31.8333 180.396 32.102C180.396 32.492 180.283 32.843 180.058 33.155C179.841 33.4583 179.546 33.6967 179.174 33.87C178.801 34.0433 178.385 34.13 177.926 34.13ZM189.363 34.13C188.696 34.13 188.098 33.9783 187.569 33.675C187.049 33.363 186.637 32.9427 186.334 32.414C186.031 31.8767 185.879 31.2657 185.879 30.581C185.879 29.8963 186.031 29.2897 186.334 28.761C186.637 28.2237 187.049 27.8033 187.569 27.5C188.098 27.188 188.696 27.032 189.363 27.032C190.022 27.032 190.611 27.188 191.131 27.5C191.66 27.8033 192.076 28.2237 192.379 28.761C192.682 29.2897 192.834 29.8963 192.834 30.581C192.834 31.2657 192.682 31.8767 192.379 32.414C192.076 32.9427 191.66 33.363 191.131 33.675C190.611 33.9783 190.022 34.13 189.363 34.13ZM189.363 32.908C189.77 32.908 190.134 32.8083 190.455 32.609C190.776 32.401 191.027 32.1237 191.209 31.777C191.391 31.4217 191.478 31.023 191.469 30.581C191.478 30.1303 191.391 29.7317 191.209 29.385C191.027 29.0297 190.776 28.7523 190.455 28.553C190.134 28.3537 189.77 28.254 189.363 28.254C188.956 28.254 188.587 28.358 188.258 28.566C187.937 28.7653 187.686 29.0427 187.504 29.398C187.322 29.7447 187.235 30.139 187.244 30.581C187.235 31.023 187.322 31.4217 187.504 31.777C187.686 32.1237 187.937 32.401 188.258 32.609C188.587 32.8083 188.956 32.908 189.363 32.908ZM194.683 34V27.175H196.022V28.579L195.788 28.735C195.875 28.4317 196.044 28.1543 196.295 27.903C196.546 27.643 196.845 27.435 197.192 27.279C197.539 27.1143 197.894 27.032 198.258 27.032C198.778 27.032 199.211 27.136 199.558 27.344C199.905 27.5433 200.165 27.851 200.338 28.267C200.511 28.683 200.598 29.2073 200.598 29.84V34H199.259V29.931C199.259 29.541 199.207 29.2203 199.103 28.969C198.999 28.709 198.839 28.5227 198.622 28.41C198.405 28.2887 198.137 28.2367 197.816 28.254C197.556 28.254 197.318 28.2973 197.101 28.384C196.884 28.462 196.694 28.5747 196.529 28.722C196.373 28.8693 196.247 29.0427 196.152 29.242C196.065 29.4327 196.022 29.6407 196.022 29.866V34H195.359C195.246 34 195.134 34 195.021 34C194.908 34 194.796 34 194.683 34ZM208.905 34V26.252H206.357V24.9H212.935V26.252H210.309V34H208.905ZM216.491 34.13C215.824 34.13 215.226 33.9783 214.697 33.675C214.177 33.363 213.766 32.9427 213.462 32.414C213.159 31.8767 213.007 31.2657 213.007 30.581C213.007 29.8963 213.159 29.2897 213.462 28.761C213.766 28.2237 214.177 27.8033 214.697 27.5C215.226 27.188 215.824 27.032 216.491 27.032C217.15 27.032 217.739 27.188 218.259 27.5C218.788 27.8033 219.204 28.2237 219.507 28.761C219.811 29.2897 219.962 29.8963 219.962 30.581C219.962 31.2657 219.811 31.8767 219.507 32.414C219.204 32.9427 218.788 33.363 218.259 33.675C217.739 33.9783 217.15 34.13 216.491 34.13ZM216.491 32.908C216.899 32.908 217.263 32.8083 217.583 32.609C217.904 32.401 218.155 32.1237 218.337 31.777C218.519 31.4217 218.606 31.023 218.597 30.581C218.606 30.1303 218.519 29.7317 218.337 29.385C218.155 29.0297 217.904 28.7523 217.583 28.553C217.263 28.3537 216.899 28.254 216.491 28.254C216.084 28.254 215.716 28.358 215.386 28.566C215.066 28.7653 214.814 29.0427 214.632 29.398C214.45 29.7447 214.364 30.139 214.372 30.581C214.364 31.023 214.45 31.4217 214.632 31.777C214.814 32.1237 215.066 32.401 215.386 32.609C215.716 32.8083 216.084 32.908 216.491 32.908ZM224.879 34.13C224.212 34.13 223.614 33.9783 223.085 33.675C222.565 33.363 222.154 32.9427 221.85 32.414C221.547 31.8767 221.395 31.2657 221.395 30.581C221.395 29.8963 221.547 29.2897 221.85 28.761C222.154 28.2237 222.565 27.8033 223.085 27.5C223.614 27.188 224.212 27.032 224.879 27.032C225.538 27.032 226.127 27.188 226.647 27.5C227.176 27.8033 227.592 28.2237 227.895 28.761C228.199 29.2897 228.35 29.8963 228.35 30.581C228.35 31.2657 228.199 31.8767 227.895 32.414C227.592 32.9427 227.176 33.363 226.647 33.675C226.127 33.9783 225.538 34.13 224.879 34.13ZM224.879 32.908C225.287 32.908 225.651 32.8083 225.971 32.609C226.292 32.401 226.543 32.1237 226.725 31.777C226.907 31.4217 226.994 31.023 226.985 30.581C226.994 30.1303 226.907 29.7317 226.725 29.385C226.543 29.0297 226.292 28.7523 225.971 28.553C225.651 28.3537 225.287 28.254 224.879 28.254C224.472 28.254 224.104 28.358 223.774 28.566C223.454 28.7653 223.202 29.0427 223.02 29.398C222.838 29.7447 222.752 30.139 222.76 30.581C222.752 31.023 222.838 31.4217 223.02 31.777C223.202 32.1237 223.454 32.401 223.774 32.609C224.104 32.8083 224.472 32.908 224.879 32.908ZM233.046 34.13C232.422 34.13 231.863 33.9783 231.369 33.675C230.884 33.363 230.498 32.9427 230.212 32.414C229.926 31.8767 229.783 31.2657 229.783 30.581C229.783 29.8963 229.922 29.2897 230.199 28.761C230.485 28.2237 230.871 27.8033 231.356 27.5C231.842 27.188 232.392 27.032 233.007 27.032C233.345 27.032 233.67 27.0883 233.982 27.201C234.303 27.305 234.589 27.4523 234.84 27.643C235.092 27.825 235.287 28.0287 235.425 28.254C235.573 28.4707 235.646 28.6917 235.646 28.917L235.256 28.943V24.38H236.595V34H235.256V32.375H235.516C235.516 32.583 235.447 32.791 235.308 32.999C235.17 33.1983 234.983 33.3847 234.749 33.558C234.524 33.7313 234.26 33.87 233.956 33.974C233.662 34.078 233.358 34.13 233.046 34.13ZM233.228 32.973C233.636 32.973 233.995 32.869 234.307 32.661C234.619 32.453 234.862 32.1713 235.035 31.816C235.217 31.452 235.308 31.0403 235.308 30.581C235.308 30.1217 235.217 29.7143 235.035 29.359C234.862 28.995 234.619 28.709 234.307 28.501C233.995 28.293 233.636 28.189 233.228 28.189C232.821 28.189 232.461 28.293 232.149 28.501C231.837 28.709 231.59 28.995 231.408 29.359C231.235 29.7143 231.148 30.1217 231.148 30.581C231.148 31.0403 231.235 31.452 231.408 31.816C231.59 32.1713 231.837 32.453 232.149 32.661C232.461 32.869 232.821 32.973 233.228 32.973ZM238.855 34V24.38H240.194V34H238.855ZM243.435 36.99L244.813 33.805L244.826 34.871L241.42 27.175H242.98L245.112 32.193C245.155 32.2797 245.207 32.414 245.268 32.596C245.329 32.7693 245.381 32.9427 245.424 33.116L245.086 33.194C245.155 33.012 245.22 32.83 245.281 32.648C245.35 32.466 245.415 32.284 245.476 32.102L247.257 27.175H248.843L246.035 34L244.878 36.99H243.435Z" fill="#1E1E1E" fill-opacity="0.66"/>
<rect x="40.5" y="22.5" width="12" height="12" rx="1.5" stroke="#ABABAB"/>
<path d="M387 26L383.168 30.6834C383.004 30.8838 382.759 31 382.5 31V31C382.241 31 381.996 30.8838 381.832 30.6834L378 26" stroke="#ABABAB" stroke-linecap="round" stroke-linejoin="round"/>
</g>
<defs>
<filter id="filter0_d_33_69" x="0" y="0" width="404" height="85.2349" filterUnits="userSpaceOnUse" color-interpolation-filters="sRGB">
<feFlood flood-opacity="0" result="BackgroundImageFix"/>
<feColorMatrix in="SourceAlpha" type="matrix" values="0 0 0 0 0 0 0 0 0 0 0 0 0 0 0 0 0 0 127 0" result="hardAlpha"/>
<feOffset dx="-11" dy="14"/>
<feGaussianBlur stdDeviation="10"/>
<feComposite in2="hardAlpha" operator="out"/>
<feColorMatrix type="matrix" values="0 0 0 0 0 0 0 0 0 0 0 0 0 0 0 0 0 0 0.11 0"/>
<feBlend mode="normal" in2="BackgroundImageFix" result="effect1_dropShadow_33_69"/>
<feBlend mode="normal" in="SourceGraphic" in2="effect1_dropShadow_33_69" result="shape"/>
</filter>
</defs>
</svg>
