<svg width="404" height="86" viewBox="0 0 404 86" fill="none" xmlns="http://www.w3.org/2000/svg">
<g filter="url(#filter0_d_33_58)">
<rect x="31" y="6" width="364" height="45.2348" rx="8" fill="#FAFAFA"/>
<path d="M59.274 34V24.9H63.148C63.668 24.9 64.1447 25.03 64.578 25.29C65.02 25.5413 65.371 25.888 65.631 26.33C65.891 26.7633 66.021 27.253 66.021 27.799C66.021 28.293 65.891 28.7523 65.631 29.177C65.371 29.6017 65.0243 29.944 64.591 30.204C64.1577 30.4553 63.6767 30.581 63.148 30.581H60.678V34H59.274ZM64.682 34L62.368 29.892L63.811 29.567L66.385 34.013L64.682 34ZM60.678 29.229H63.278C63.5293 29.229 63.7547 29.1683 63.954 29.047C64.1533 28.917 64.3093 28.7437 64.422 28.527C64.5347 28.3017 64.591 28.0547 64.591 27.786C64.591 27.4827 64.5173 27.2183 64.37 26.993C64.2313 26.759 64.032 26.577 63.772 26.447C63.5207 26.317 63.2347 26.252 62.914 26.252H60.678V29.229ZM71.2962 34.13C70.5942 34.13 69.9702 33.9827 69.4242 33.688C68.8868 33.3847 68.4622 32.973 68.1502 32.453C67.8468 31.933 67.6952 31.335 67.6952 30.659C67.6952 30.1217 67.7818 29.632 67.9552 29.19C68.1285 28.748 68.3668 28.3667 68.6702 28.046C68.9822 27.7167 69.3505 27.4653 69.7752 27.292C70.2085 27.11 70.6765 27.019 71.1792 27.019C71.6212 27.019 72.0328 27.1057 72.4142 27.279C72.7955 27.4437 73.1248 27.6733 73.4022 27.968C73.6882 28.2627 73.9048 28.6137 74.0522 29.021C74.2082 29.4197 74.2818 29.8573 74.2732 30.334L74.2602 30.906H68.6832L68.3842 29.84H73.1032L72.9082 30.061V29.749C72.8822 29.463 72.7868 29.2073 72.6222 28.982C72.4575 28.7567 72.2495 28.579 71.9982 28.449C71.7468 28.319 71.4738 28.254 71.1792 28.254C70.7112 28.254 70.3168 28.345 69.9962 28.527C69.6755 28.7003 69.4328 28.9603 69.2682 29.307C69.1035 29.645 69.0212 30.0653 69.0212 30.568C69.0212 31.0447 69.1208 31.4607 69.3202 31.816C69.5195 32.1627 69.8012 32.4313 70.1652 32.622C70.5292 32.8127 70.9495 32.908 71.4262 32.908C71.7642 32.908 72.0762 32.8517 72.3622 32.739C72.6568 32.6263 72.9732 32.4227 73.3112 32.128L73.9872 33.077C73.7792 33.285 73.5235 33.467 73.2202 33.623C72.9255 33.779 72.6092 33.9047 72.2712 34C71.9418 34.0867 71.6168 34.13 71.2962 34.13ZM78.3933 34.13C77.8213 34.13 77.3057 34.0303 76.8463 33.831C76.387 33.6317 76.0057 33.337 75.7023 32.947L76.6123 32.167C76.8723 32.4703 77.154 32.6913 77.4573 32.83C77.7693 32.96 78.1203 33.025 78.5103 33.025C78.6663 33.025 78.8093 33.0077 78.9393 32.973C79.078 32.9297 79.195 32.869 79.2903 32.791C79.3943 32.713 79.4723 32.622 79.5243 32.518C79.5763 32.4053 79.6023 32.284 79.6023 32.154C79.6023 31.9287 79.52 31.7467 79.3553 31.608C79.2687 31.5473 79.13 31.4823 78.9393 31.413C78.7573 31.335 78.519 31.257 78.2243 31.179C77.7217 31.049 77.31 30.9017 76.9893 30.737C76.6687 30.5723 76.4217 30.386 76.2483 30.178C76.1183 30.0133 76.023 29.8357 75.9623 29.645C75.9017 29.4457 75.8713 29.229 75.8713 28.995C75.8713 28.709 75.932 28.449 76.0533 28.215C76.1833 27.9723 76.3567 27.7643 76.5733 27.591C76.7987 27.409 77.0587 27.2703 77.3533 27.175C77.6567 27.0797 77.9773 27.032 78.3153 27.032C78.636 27.032 78.9523 27.0753 79.2643 27.162C79.585 27.2487 79.8797 27.3743 80.1483 27.539C80.417 27.7037 80.6423 27.8987 80.8243 28.124L80.0573 28.969C79.8927 28.8043 79.7107 28.6613 79.5113 28.54C79.3207 28.41 79.1257 28.3103 78.9263 28.241C78.727 28.1717 78.545 28.137 78.3803 28.137C78.1983 28.137 78.0337 28.1543 77.8863 28.189C77.739 28.2237 77.6133 28.2757 77.5093 28.345C77.414 28.4143 77.3403 28.501 77.2883 28.605C77.2363 28.709 77.2103 28.826 77.2103 28.956C77.219 29.0687 77.245 29.177 77.2883 29.281C77.3403 29.3763 77.4097 29.4587 77.4963 29.528C77.5917 29.5973 77.7347 29.671 77.9253 29.749C78.116 29.827 78.3587 29.9007 78.6533 29.97C79.0867 30.0827 79.442 30.2083 79.7193 30.347C80.0053 30.477 80.2307 30.6287 80.3953 30.802C80.5687 30.9667 80.69 31.1573 80.7593 31.374C80.8287 31.5907 80.8633 31.8333 80.8633 32.102C80.8633 32.492 80.7507 32.843 80.5253 33.155C80.3087 33.4583 80.014 33.6967 79.6413 33.87C79.2687 34.0433 78.8527 34.13 78.3933 34.13ZM85.914 34.13C85.212 34.13 84.588 33.9827 84.042 33.688C83.5047 33.3847 83.08 32.973 82.768 32.453C82.4647 31.933 82.313 31.335 82.313 30.659C82.313 30.1217 82.3997 29.632 82.573 29.19C82.7464 28.748 82.9847 28.3667 83.288 28.046C83.6 27.7167 83.9684 27.4653 84.393 27.292C84.8264 27.11 85.2944 27.019 85.797 27.019C86.239 27.019 86.6507 27.1057 87.032 27.279C87.4134 27.4437 87.7427 27.6733 88.02 27.968C88.306 28.2627 88.5227 28.6137 88.67 29.021C88.826 29.4197 88.8997 29.8573 88.891 30.334L88.878 30.906H83.301L83.002 29.84H87.721L87.526 30.061V29.749C87.5 29.463 87.4047 29.2073 87.24 28.982C87.0754 28.7567 86.8674 28.579 86.616 28.449C86.3647 28.319 86.0917 28.254 85.797 28.254C85.329 28.254 84.9347 28.345 84.614 28.527C84.2934 28.7003 84.0507 28.9603 83.886 29.307C83.7214 29.645 83.639 30.0653 83.639 30.568C83.639 31.0447 83.7387 31.4607 83.938 31.816C84.1374 32.1627 84.419 32.4313 84.783 32.622C85.147 32.8127 85.5674 32.908 86.044 32.908C86.382 32.908 86.694 32.8517 86.98 32.739C87.2747 32.6263 87.591 32.4227 87.929 32.128L88.605 33.077C88.397 33.285 88.1414 33.467 87.838 33.623C87.5434 33.779 87.227 33.9047 86.889 34C86.5597 34.0867 86.2347 34.13 85.914 34.13ZM93.3622 34.13C92.7989 34.13 92.2832 33.974 91.8152 33.662C91.3559 33.35 90.9876 32.9253 90.7102 32.388C90.4329 31.8507 90.2942 31.244 90.2942 30.568C90.2942 29.8833 90.4329 29.2767 90.7102 28.748C90.9962 28.2107 91.3776 27.7903 91.8542 27.487C92.3396 27.1837 92.8812 27.032 93.4792 27.032C93.8346 27.032 94.1596 27.084 94.4542 27.188C94.7489 27.292 95.0046 27.4393 95.2212 27.63C95.4466 27.812 95.6286 28.0243 95.7672 28.267C95.9146 28.5097 96.0056 28.7697 96.0402 29.047L95.7412 28.943V27.175H97.0932V34H95.7412V32.375L96.0532 32.284C96.0012 32.518 95.8929 32.7477 95.7282 32.973C95.5722 33.1897 95.3686 33.3847 95.1172 33.558C94.8746 33.7313 94.6016 33.87 94.2982 33.974C94.0036 34.078 93.6916 34.13 93.3622 34.13ZM93.7132 32.895C94.1206 32.895 94.4802 32.7953 94.7922 32.596C95.1042 32.3967 95.3469 32.1237 95.5202 31.777C95.7022 31.4217 95.7932 31.0187 95.7932 30.568C95.7932 30.126 95.7022 29.7317 95.5202 29.385C95.3469 29.0383 95.1042 28.7653 94.7922 28.566C94.4802 28.3667 94.1206 28.267 93.7132 28.267C93.3146 28.267 92.9592 28.3667 92.6472 28.566C92.3439 28.7653 92.1012 29.0383 91.9192 29.385C91.7459 29.7317 91.6592 30.126 91.6592 30.568C91.6592 31.0187 91.7459 31.4217 91.9192 31.777C92.1012 32.1237 92.3439 32.3967 92.6472 32.596C92.9592 32.7953 93.3146 32.895 93.7132 32.895ZM99.3528 34V27.175H100.705V29.32L100.575 28.8C100.67 28.4707 100.83 28.1717 101.056 27.903C101.29 27.6343 101.554 27.422 101.849 27.266C102.152 27.11 102.464 27.032 102.785 27.032C102.932 27.032 103.071 27.045 103.201 27.071C103.339 27.097 103.448 27.1273 103.526 27.162L103.175 28.618C103.071 28.5747 102.954 28.54 102.824 28.514C102.702 28.4793 102.581 28.462 102.46 28.462C102.226 28.462 102 28.5097 101.784 28.605C101.576 28.6917 101.389 28.8173 101.225 28.982C101.069 29.138 100.943 29.3243 100.848 29.541C100.752 29.749 100.705 29.9787 100.705 30.23V34H99.3528ZM107.593 34.13C106.96 34.13 106.393 33.974 105.89 33.662C105.396 33.35 105.002 32.9253 104.707 32.388C104.421 31.8507 104.278 31.2483 104.278 30.581C104.278 29.9137 104.421 29.3113 104.707 28.774C105.002 28.2367 105.396 27.812 105.89 27.5C106.393 27.188 106.96 27.032 107.593 27.032C108.2 27.032 108.75 27.1577 109.244 27.409C109.747 27.6517 110.128 27.9853 110.388 28.41L109.647 29.32C109.508 29.1207 109.331 28.9387 109.114 28.774C108.897 28.6093 108.668 28.4793 108.425 28.384C108.182 28.2887 107.948 28.241 107.723 28.241C107.307 28.241 106.934 28.345 106.605 28.553C106.284 28.7523 106.029 29.0297 105.838 29.385C105.647 29.7403 105.552 30.139 105.552 30.581C105.552 31.023 105.652 31.4217 105.851 31.777C106.05 32.1237 106.315 32.401 106.644 32.609C106.973 32.817 107.337 32.921 107.736 32.921C107.97 32.921 108.195 32.882 108.412 32.804C108.637 32.726 108.854 32.609 109.062 32.453C109.27 32.297 109.465 32.1063 109.647 31.881L110.388 32.791C110.111 33.181 109.712 33.5017 109.192 33.753C108.681 34.0043 108.148 34.13 107.593 34.13ZM112.041 34V24.38H113.38V28.579L113.146 28.735C113.233 28.4317 113.402 28.1543 113.653 27.903C113.904 27.643 114.203 27.435 114.55 27.279C114.897 27.1143 115.252 27.032 115.616 27.032C116.136 27.032 116.569 27.136 116.916 27.344C117.263 27.5433 117.523 27.851 117.696 28.267C117.869 28.683 117.956 29.2073 117.956 29.84V34H116.617V29.931C116.617 29.541 116.565 29.2203 116.461 28.969C116.357 28.709 116.197 28.5227 115.98 28.41C115.763 28.2887 115.495 28.2367 115.174 28.254C114.914 28.254 114.676 28.2973 114.459 28.384C114.242 28.462 114.052 28.5747 113.887 28.722C113.731 28.8693 113.605 29.0427 113.51 29.242C113.423 29.4327 113.38 29.6407 113.38 29.866V34H112.717C112.604 34 112.492 34 112.379 34C112.266 34 112.154 34 112.041 34ZM124.534 34V24.9H128.33C128.911 24.9 129.4 24.9867 129.799 25.16C130.198 25.3333 130.497 25.5933 130.696 25.94C130.904 26.278 131.008 26.694 131.008 27.188C131.008 27.682 130.869 28.1023 130.592 28.449C130.323 28.7957 129.946 29.034 129.461 29.164V28.904C129.868 28.9907 130.224 29.1467 130.527 29.372C130.83 29.5887 131.064 29.8617 131.229 30.191C131.402 30.5203 131.489 30.8973 131.489 31.322C131.489 31.7553 131.42 32.141 131.281 32.479C131.151 32.8083 130.952 33.0857 130.683 33.311C130.423 33.5363 130.107 33.7097 129.734 33.831C129.361 33.9437 128.937 34 128.46 34H124.534ZM125.938 32.648H128.382C128.737 32.648 129.036 32.596 129.279 32.492C129.53 32.388 129.721 32.2363 129.851 32.037C129.99 31.829 130.059 31.582 130.059 31.296C130.059 31.0273 129.985 30.7977 129.838 30.607C129.699 30.4163 129.5 30.2733 129.24 30.178C128.98 30.074 128.672 30.022 128.317 30.022H125.938V32.648ZM125.938 28.67H128.252C128.512 28.67 128.742 28.618 128.941 28.514C129.149 28.41 129.309 28.267 129.422 28.085C129.543 27.903 129.604 27.695 129.604 27.461C129.604 27.071 129.474 26.772 129.214 26.564C128.954 26.356 128.581 26.252 128.096 26.252H125.938V28.67ZM133.423 34V24.38H134.762V34H133.423ZM139.99 34.13C139.323 34.13 138.725 33.9783 138.196 33.675C137.676 33.363 137.265 32.9427 136.961 32.414C136.658 31.8767 136.506 31.2657 136.506 30.581C136.506 29.8963 136.658 29.2897 136.961 28.761C137.265 28.2237 137.676 27.8033 138.196 27.5C138.725 27.188 139.323 27.032 139.99 27.032C140.649 27.032 141.238 27.188 141.758 27.5C142.287 27.8033 142.703 28.2237 143.006 28.761C143.31 29.2897 143.461 29.8963 143.461 30.581C143.461 31.2657 143.31 31.8767 143.006 32.414C142.703 32.9427 142.287 33.363 141.758 33.675C141.238 33.9783 140.649 34.13 139.99 34.13ZM139.99 32.908C140.398 32.908 140.762 32.8083 141.082 32.609C141.403 32.401 141.654 32.1237 141.836 31.777C142.018 31.4217 142.105 31.023 142.096 30.581C142.105 30.1303 142.018 29.7317 141.836 29.385C141.654 29.0297 141.403 28.7523 141.082 28.553C140.762 28.3537 140.398 28.254 139.99 28.254C139.583 28.254 139.215 28.358 138.885 28.566C138.565 28.7653 138.313 29.0427 138.131 29.398C137.949 29.7447 137.863 30.139 137.871 30.581C137.863 31.023 137.949 31.4217 138.131 31.777C138.313 32.1237 138.565 32.401 138.885 32.609C139.215 32.8083 139.583 32.908 139.99 32.908ZM148.378 34.13C147.711 34.13 147.113 33.9783 146.584 33.675C146.064 33.363 145.653 32.9427 145.349 32.414C145.046 31.8767 144.894 31.2657 144.894 30.581C144.894 29.8963 145.046 29.2897 145.349 28.761C145.653 28.2237 146.064 27.8033 146.584 27.5C147.113 27.188 147.711 27.032 148.378 27.032C149.037 27.032 149.626 27.188 150.146 27.5C150.675 27.8033 151.091 28.2237 151.394 28.761C151.698 29.2897 151.849 29.8963 151.849 30.581C151.849 31.2657 151.698 31.8767 151.394 32.414C151.091 32.9427 150.675 33.363 150.146 33.675C149.626 33.9783 149.037 34.13 148.378 34.13ZM148.378 32.908C148.786 32.908 149.15 32.8083 149.47 32.609C149.791 32.401 150.042 32.1237 150.224 31.777C150.406 31.4217 150.493 31.023 150.484 30.581C150.493 30.1303 150.406 29.7317 150.224 29.385C150.042 29.0297 149.791 28.7523 149.47 28.553C149.15 28.3537 148.786 28.254 148.378 28.254C147.971 28.254 147.603 28.358 147.273 28.566C146.953 28.7653 146.701 29.0427 146.519 29.398C146.337 29.7447 146.251 30.139 146.259 30.581C146.251 31.023 146.337 31.4217 146.519 31.777C146.701 32.1237 146.953 32.401 147.273 32.609C147.603 32.8083 147.971 32.908 148.378 32.908ZM156.545 34.13C155.921 34.13 155.362 33.9783 154.868 33.675C154.383 33.363 153.997 32.9427 153.711 32.414C153.425 31.8767 153.282 31.2657 153.282 30.581C153.282 29.8963 153.421 29.2897 153.698 28.761C153.984 28.2237 154.37 27.8033 154.855 27.5C155.341 27.188 155.891 27.032 156.506 27.032C156.844 27.032 157.169 27.0883 157.481 27.201C157.802 27.305 158.088 27.4523 158.339 27.643C158.591 27.825 158.786 28.0287 158.924 28.254C159.072 28.4707 159.145 28.6917 159.145 28.917L158.755 28.943V24.38H160.094V34H158.755V32.375H159.015C159.015 32.583 158.946 32.791 158.807 32.999C158.669 33.1983 158.482 33.3847 158.248 33.558C158.023 33.7313 157.759 33.87 157.455 33.974C157.161 34.078 156.857 34.13 156.545 34.13ZM156.727 32.973C157.135 32.973 157.494 32.869 157.806 32.661C158.118 32.453 158.361 32.1713 158.534 31.816C158.716 31.452 158.807 31.0403 158.807 30.581C158.807 30.1217 158.716 29.7143 158.534 29.359C158.361 28.995 158.118 28.709 157.806 28.501C157.494 28.293 157.135 28.189 156.727 28.189C156.32 28.189 155.96 28.293 155.648 28.501C155.336 28.709 155.089 28.995 154.907 29.359C154.734 29.7143 154.647 30.1217 154.647 30.581C154.647 31.0403 154.734 31.452 154.907 31.816C155.089 32.1713 155.336 32.453 155.648 32.661C155.96 32.869 156.32 32.973 156.727 32.973ZM168.428 34V26.252H165.88V24.9H172.458V26.252H169.832V34H168.428ZM176.132 34.13C175.43 34.13 174.806 33.9827 174.26 33.688C173.722 33.3847 173.298 32.973 172.986 32.453C172.682 31.933 172.531 31.335 172.531 30.659C172.531 30.1217 172.617 29.632 172.791 29.19C172.964 28.748 173.202 28.3667 173.506 28.046C173.818 27.7167 174.186 27.4653 174.611 27.292C175.044 27.11 175.512 27.019 176.015 27.019C176.457 27.019 176.868 27.1057 177.25 27.279C177.631 27.4437 177.96 27.6733 178.238 27.968C178.524 28.2627 178.74 28.6137 178.888 29.021C179.044 29.4197 179.117 29.8573 179.109 30.334L179.096 30.906H173.519L173.22 29.84H177.939L177.744 30.061V29.749C177.718 29.463 177.622 29.2073 177.458 28.982C177.293 28.7567 177.085 28.579 176.834 28.449C176.582 28.319 176.309 28.254 176.015 28.254C175.547 28.254 175.152 28.345 174.832 28.527C174.511 28.7003 174.268 28.9603 174.104 29.307C173.939 29.645 173.857 30.0653 173.857 30.568C173.857 31.0447 173.956 31.4607 174.156 31.816C174.355 32.1627 174.637 32.4313 175.001 32.622C175.365 32.8127 175.785 32.908 176.262 32.908C176.6 32.908 176.912 32.8517 177.198 32.739C177.492 32.6263 177.809 32.4227 178.147 32.128L178.823 33.077C178.615 33.285 178.359 33.467 178.056 33.623C177.761 33.779 177.445 33.9047 177.107 34C176.777 34.0867 176.452 34.13 176.132 34.13ZM183.229 34.13C182.657 34.13 182.141 34.0303 181.682 33.831C181.222 33.6317 180.841 33.337 180.538 32.947L181.448 32.167C181.708 32.4703 181.989 32.6913 182.293 32.83C182.605 32.96 182.956 33.025 183.346 33.025C183.502 33.025 183.645 33.0077 183.775 32.973C183.913 32.9297 184.03 32.869 184.126 32.791C184.23 32.713 184.308 32.622 184.36 32.518C184.412 32.4053 184.438 32.284 184.438 32.154C184.438 31.9287 184.355 31.7467 184.191 31.608C184.104 31.5473 183.965 31.4823 183.775 31.413C183.593 31.335 183.354 31.257 183.06 31.179C182.557 31.049 182.145 30.9017 181.825 30.737C181.504 30.5723 181.257 30.386 181.084 30.178C180.954 30.0133 180.858 29.8357 180.798 29.645C180.737 29.4457 180.707 29.229 180.707 28.995C180.707 28.709 180.767 28.449 180.889 28.215C181.019 27.9723 181.192 27.7643 181.409 27.591C181.634 27.409 181.894 27.2703 182.189 27.175C182.492 27.0797 182.813 27.032 183.151 27.032C183.471 27.032 183.788 27.0753 184.1 27.162C184.42 27.2487 184.715 27.3743 184.984 27.539C185.252 27.7037 185.478 27.8987 185.66 28.124L184.893 28.969C184.728 28.8043 184.546 28.6613 184.347 28.54C184.156 28.41 183.961 28.3103 183.762 28.241C183.562 28.1717 183.38 28.137 183.216 28.137C183.034 28.137 182.869 28.1543 182.722 28.189C182.574 28.2237 182.449 28.2757 182.345 28.345C182.249 28.4143 182.176 28.501 182.124 28.605C182.072 28.709 182.046 28.826 182.046 28.956C182.054 29.0687 182.08 29.177 182.124 29.281C182.176 29.3763 182.245 29.4587 182.332 29.528C182.427 29.5973 182.57 29.671 182.761 29.749C182.951 29.827 183.194 29.9007 183.489 29.97C183.922 30.0827 184.277 30.2083 184.555 30.347C184.841 30.477 185.066 30.6287 185.231 30.802C185.404 30.9667 185.525 31.1573 185.595 31.374C185.664 31.5907 185.699 31.8333 185.699 32.102C185.699 32.492 185.586 32.843 185.361 33.155C185.144 33.4583 184.849 33.6967 184.477 33.87C184.104 34.0433 183.688 34.13 183.229 34.13ZM188.409 34V25.433H189.748V34H188.409ZM186.992 28.475V27.175H191.334V28.475H186.992ZM199.876 34.13C199.244 34.13 198.676 33.974 198.173 33.662C197.679 33.35 197.285 32.9253 196.99 32.388C196.704 31.8507 196.561 31.2483 196.561 30.581C196.561 29.9137 196.704 29.3113 196.99 28.774C197.285 28.2367 197.679 27.812 198.173 27.5C198.676 27.188 199.244 27.032 199.876 27.032C200.483 27.032 201.033 27.1577 201.527 27.409C202.03 27.6517 202.411 27.9853 202.671 28.41L201.93 29.32C201.792 29.1207 201.614 28.9387 201.397 28.774C201.181 28.6093 200.951 28.4793 200.708 28.384C200.466 28.2887 200.232 28.241 200.006 28.241C199.59 28.241 199.218 28.345 198.888 28.553C198.568 28.7523 198.312 29.0297 198.121 29.385C197.931 29.7403 197.835 30.139 197.835 30.581C197.835 31.023 197.935 31.4217 198.134 31.777C198.334 32.1237 198.598 32.401 198.927 32.609C199.257 32.817 199.621 32.921 200.019 32.921C200.253 32.921 200.479 32.882 200.695 32.804C200.921 32.726 201.137 32.609 201.345 32.453C201.553 32.297 201.748 32.1063 201.93 31.881L202.671 32.791C202.394 33.181 201.995 33.5017 201.475 33.753C200.964 34.0043 200.431 34.13 199.876 34.13ZM207.509 34.13C206.807 34.13 206.183 33.9827 205.637 33.688C205.1 33.3847 204.675 32.973 204.363 32.453C204.06 31.933 203.908 31.335 203.908 30.659C203.908 30.1217 203.995 29.632 204.168 29.19C204.342 28.748 204.58 28.3667 204.883 28.046C205.195 27.7167 205.564 27.4653 205.988 27.292C206.422 27.11 206.89 27.019 207.392 27.019C207.834 27.019 208.246 27.1057 208.627 27.279C209.009 27.4437 209.338 27.6733 209.615 27.968C209.901 28.2627 210.118 28.6137 210.265 29.021C210.421 29.4197 210.495 29.8573 210.486 30.334L210.473 30.906H204.896L204.597 29.84H209.316L209.121 30.061V29.749C209.095 29.463 209 29.2073 208.835 28.982C208.671 28.7567 208.463 28.579 208.211 28.449C207.96 28.319 207.687 28.254 207.392 28.254C206.924 28.254 206.53 28.345 206.209 28.527C205.889 28.7003 205.646 28.9603 205.481 29.307C205.317 29.645 205.234 30.0653 205.234 30.568C205.234 31.0447 205.334 31.4607 205.533 31.816C205.733 32.1627 206.014 32.4313 206.378 32.622C206.742 32.8127 207.163 32.908 207.639 32.908C207.977 32.908 208.289 32.8517 208.575 32.739C208.87 32.6263 209.186 32.4227 209.524 32.128L210.2 33.077C209.992 33.285 209.737 33.467 209.433 33.623C209.139 33.779 208.822 33.9047 208.484 34C208.155 34.0867 207.83 34.13 207.509 34.13ZM212.331 34V27.175H213.67V28.579L213.436 28.735C213.523 28.4317 213.692 28.1543 213.943 27.903C214.195 27.643 214.494 27.435 214.84 27.279C215.187 27.1143 215.542 27.032 215.906 27.032C216.426 27.032 216.86 27.136 217.206 27.344C217.553 27.5433 217.813 27.851 217.986 28.267C218.16 28.683 218.246 29.2073 218.246 29.84V34H216.907V29.931C216.907 29.541 216.855 29.2203 216.751 28.969C216.647 28.709 216.487 28.5227 216.27 28.41C216.054 28.2887 215.785 28.2367 215.464 28.254C215.204 28.254 214.966 28.2973 214.749 28.384C214.533 28.462 214.342 28.5747 214.177 28.722C214.021 28.8693 213.896 29.0427 213.8 29.242C213.714 29.4327 213.67 29.6407 213.67 29.866V34H213.007C212.895 34 212.782 34 212.669 34C212.557 34 212.444 34 212.331 34ZM221.298 34V25.433H222.637V34H221.298ZM219.881 28.475V27.175H224.223V28.475H219.881ZM225.832 34V27.175H227.184V29.32L227.054 28.8C227.149 28.4707 227.31 28.1717 227.535 27.903C227.769 27.6343 228.033 27.422 228.328 27.266C228.631 27.11 228.943 27.032 229.264 27.032C229.411 27.032 229.55 27.045 229.68 27.071C229.819 27.097 229.927 27.1273 230.005 27.162L229.654 28.618C229.55 28.5747 229.433 28.54 229.303 28.514C229.182 28.4793 229.06 28.462 228.939 28.462C228.705 28.462 228.48 28.5097 228.263 28.605C228.055 28.6917 227.869 28.8173 227.704 28.982C227.548 29.138 227.422 29.3243 227.327 29.541C227.232 29.749 227.184 29.9787 227.184 30.23V34H225.832ZM234.358 34.13C233.656 34.13 233.032 33.9827 232.486 33.688C231.949 33.3847 231.524 32.973 231.212 32.453C230.909 31.933 230.757 31.335 230.757 30.659C230.757 30.1217 230.844 29.632 231.017 29.19C231.191 28.748 231.429 28.3667 231.732 28.046C232.044 27.7167 232.413 27.4653 232.837 27.292C233.271 27.11 233.739 27.019 234.241 27.019C234.683 27.019 235.095 27.1057 235.476 27.279C235.858 27.4437 236.187 27.6733 236.464 27.968C236.75 28.2627 236.967 28.6137 237.114 29.021C237.27 29.4197 237.344 29.8573 237.335 30.334L237.322 30.906H231.745L231.446 29.84H236.165L235.97 30.061V29.749C235.944 29.463 235.849 29.2073 235.684 28.982C235.52 28.7567 235.312 28.579 235.06 28.449C234.809 28.319 234.536 28.254 234.241 28.254C233.773 28.254 233.379 28.345 233.058 28.527C232.738 28.7003 232.495 28.9603 232.33 29.307C232.166 29.645 232.083 30.0653 232.083 30.568C232.083 31.0447 232.183 31.4607 232.382 31.816C232.582 32.1627 232.863 32.4313 233.227 32.622C233.591 32.8127 234.012 32.908 234.488 32.908C234.826 32.908 235.138 32.8517 235.424 32.739C235.719 32.6263 236.035 32.4227 236.373 32.128L237.049 33.077C236.841 33.285 236.586 33.467 236.282 33.623C235.988 33.779 235.671 33.9047 235.333 34C235.004 34.0867 234.679 34.13 234.358 34.13ZM241.455 34.13C240.883 34.13 240.368 34.0303 239.908 33.831C239.449 33.6317 239.068 33.337 238.764 32.947L239.674 32.167C239.934 32.4703 240.216 32.6913 240.519 32.83C240.831 32.96 241.182 33.025 241.572 33.025C241.728 33.025 241.871 33.0077 242.001 32.973C242.14 32.9297 242.257 32.869 242.352 32.791C242.456 32.713 242.534 32.622 242.586 32.518C242.638 32.4053 242.664 32.284 242.664 32.154C242.664 31.9287 242.582 31.7467 242.417 31.608C242.331 31.5473 242.192 31.4823 242.001 31.413C241.819 31.335 241.581 31.257 241.286 31.179C240.784 31.049 240.372 30.9017 240.051 30.737C239.731 30.5723 239.484 30.386 239.31 30.178C239.18 30.0133 239.085 29.8357 239.024 29.645C238.964 29.4457 238.933 29.229 238.933 28.995C238.933 28.709 238.994 28.449 239.115 28.215C239.245 27.9723 239.419 27.7643 239.635 27.591C239.861 27.409 240.121 27.2703 240.415 27.175C240.719 27.0797 241.039 27.032 241.377 27.032C241.698 27.032 242.014 27.0753 242.326 27.162C242.647 27.2487 242.942 27.3743 243.21 27.539C243.479 27.7037 243.704 27.8987 243.886 28.124L243.119 28.969C242.955 28.8043 242.773 28.6613 242.573 28.54C242.383 28.41 242.188 28.3103 241.988 28.241C241.789 28.1717 241.607 28.137 241.442 28.137C241.26 28.137 241.096 28.1543 240.948 28.189C240.801 28.2237 240.675 28.2757 240.571 28.345C240.476 28.4143 240.402 28.501 240.35 28.605C240.298 28.709 240.272 28.826 240.272 28.956C240.281 29.0687 240.307 29.177 240.35 29.281C240.402 29.3763 240.472 29.4587 240.558 29.528C240.654 29.5973 240.797 29.671 240.987 29.749C241.178 29.827 241.421 29.9007 241.715 29.97C242.149 30.0827 242.504 30.2083 242.781 30.347C243.067 30.477 243.293 30.6287 243.457 30.802C243.631 30.9667 243.752 31.1573 243.821 31.374C243.891 31.5907 243.925 31.8333 243.925 32.102C243.925 32.492 243.813 32.843 243.587 33.155C243.371 33.4583 243.076 33.6967 242.703 33.87C242.331 34.0433 241.915 34.13 241.455 34.13ZM249.825 34V27.175H251.164V28.579L250.93 28.735C251.016 28.4317 251.185 28.1543 251.437 27.903C251.688 27.643 251.987 27.435 252.334 27.279C252.68 27.1143 253.036 27.032 253.4 27.032C253.92 27.032 254.353 27.136 254.7 27.344C255.046 27.5433 255.306 27.851 255.48 28.267C255.653 28.683 255.74 29.2073 255.74 29.84V34H254.401V29.931C254.401 29.541 254.349 29.2203 254.245 28.969C254.141 28.709 253.98 28.5227 253.764 28.41C253.547 28.2887 253.278 28.2367 252.958 28.254C252.698 28.254 252.459 28.2973 252.243 28.384C252.026 28.462 251.835 28.5747 251.671 28.722C251.515 28.8693 251.389 29.0427 251.294 29.242C251.207 29.4327 251.164 29.6407 251.164 29.866V34H250.501C250.388 34 250.275 34 250.163 34C250.05 34 249.937 34 249.825 34ZM261.131 34.13C260.429 34.13 259.805 33.9827 259.259 33.688C258.722 33.3847 258.297 32.973 257.985 32.453C257.682 31.933 257.53 31.335 257.53 30.659C257.53 30.1217 257.617 29.632 257.79 29.19C257.964 28.748 258.202 28.3667 258.505 28.046C258.817 27.7167 259.186 27.4653 259.61 27.292C260.044 27.11 260.512 27.019 261.014 27.019C261.456 27.019 261.868 27.1057 262.249 27.279C262.631 27.4437 262.96 27.6733 263.237 27.968C263.523 28.2627 263.74 28.6137 263.887 29.021C264.043 29.4197 264.117 29.8573 264.108 30.334L264.095 30.906H258.518L258.219 29.84H262.938L262.743 30.061V29.749C262.717 29.463 262.622 29.2073 262.457 28.982C262.293 28.7567 262.085 28.579 261.833 28.449C261.582 28.319 261.309 28.254 261.014 28.254C260.546 28.254 260.152 28.345 259.831 28.527C259.511 28.7003 259.268 28.9603 259.103 29.307C258.939 29.645 258.856 30.0653 258.856 30.568C258.856 31.0447 258.956 31.4607 259.155 31.816C259.355 32.1627 259.636 32.4313 260 32.622C260.364 32.8127 260.785 32.908 261.261 32.908C261.599 32.908 261.911 32.8517 262.197 32.739C262.492 32.6263 262.808 32.4227 263.146 32.128L263.822 33.077C263.614 33.285 263.359 33.467 263.055 33.623C262.761 33.779 262.444 33.9047 262.106 34C261.777 34.0867 261.452 34.13 261.131 34.13ZM268.579 34.13C268.016 34.13 267.5 33.974 267.032 33.662C266.573 33.35 266.205 32.9253 265.927 32.388C265.65 31.8507 265.511 31.244 265.511 30.568C265.511 29.8833 265.65 29.2767 265.927 28.748C266.213 28.2107 266.595 27.7903 267.071 27.487C267.557 27.1837 268.098 27.032 268.696 27.032C269.052 27.032 269.377 27.084 269.671 27.188C269.966 27.292 270.222 27.4393 270.438 27.63C270.664 27.812 270.846 28.0243 270.984 28.267C271.132 28.5097 271.223 28.7697 271.257 29.047L270.958 28.943V27.175H272.31V34H270.958V32.375L271.27 32.284C271.218 32.518 271.11 32.7477 270.945 32.973C270.789 33.1897 270.586 33.3847 270.334 33.558C270.092 33.7313 269.819 33.87 269.515 33.974C269.221 34.078 268.909 34.13 268.579 34.13ZM268.93 32.895C269.338 32.895 269.697 32.7953 270.009 32.596C270.321 32.3967 270.564 32.1237 270.737 31.777C270.919 31.4217 271.01 31.0187 271.01 30.568C271.01 30.126 270.919 29.7317 270.737 29.385C270.564 29.0383 270.321 28.7653 270.009 28.566C269.697 28.3667 269.338 28.267 268.93 28.267C268.532 28.267 268.176 28.3667 267.864 28.566C267.561 28.7653 267.318 29.0383 267.136 29.385C266.963 29.7317 266.876 30.126 266.876 30.568C266.876 31.0187 266.963 31.4217 267.136 31.777C267.318 32.1237 267.561 32.3967 267.864 32.596C268.176 32.7953 268.532 32.895 268.93 32.895ZM274.57 34V27.175H275.922V29.32L275.792 28.8C275.887 28.4707 276.048 28.1717 276.273 27.903C276.507 27.6343 276.771 27.422 277.066 27.266C277.369 27.11 277.681 27.032 278.002 27.032C278.149 27.032 278.288 27.045 278.418 27.071C278.557 27.097 278.665 27.1273 278.743 27.162L278.392 28.618C278.288 28.5747 278.171 28.54 278.041 28.514C277.92 28.4793 277.798 28.462 277.677 28.462C277.443 28.462 277.218 28.5097 277.001 28.605C276.793 28.6917 276.607 28.8173 276.442 28.982C276.286 29.138 276.16 29.3243 276.065 29.541C275.97 29.749 275.922 29.9787 275.922 30.23V34H274.57ZM283.791 34.13C283.496 34.13 283.202 34.0823 282.907 33.987C282.621 33.8917 282.357 33.766 282.114 33.61C281.88 33.4453 281.681 33.2677 281.516 33.077C281.36 32.8777 281.256 32.6783 281.204 32.479L281.542 32.297V33.961H280.203V24.38H281.542V28.735L281.334 28.618C281.377 28.4187 281.473 28.228 281.62 28.046C281.767 27.8553 281.954 27.6863 282.179 27.539C282.413 27.383 282.664 27.2617 282.933 27.175C283.202 27.0797 283.475 27.032 283.752 27.032C284.367 27.032 284.913 27.1837 285.39 27.487C285.867 27.7903 286.244 28.2107 286.521 28.748C286.798 29.2767 286.937 29.8833 286.937 30.568C286.937 31.2527 286.798 31.8637 286.521 32.401C286.252 32.9383 285.88 33.363 285.403 33.675C284.926 33.9783 284.389 34.13 283.791 34.13ZM283.57 32.908C283.969 32.908 284.324 32.8083 284.636 32.609C284.948 32.401 285.195 32.1237 285.377 31.777C285.559 31.4217 285.65 31.0187 285.65 30.568C285.65 30.126 285.559 29.7317 285.377 29.385C285.204 29.0297 284.961 28.7523 284.649 28.553C284.337 28.3537 283.977 28.254 283.57 28.254C283.163 28.254 282.803 28.3537 282.491 28.553C282.179 28.7523 281.932 29.0297 281.75 29.385C281.568 29.7317 281.477 30.126 281.477 30.568C281.477 31.0187 281.568 31.4217 281.75 31.777C281.932 32.1237 282.179 32.401 282.491 32.609C282.803 32.8083 283.163 32.908 283.57 32.908ZM289.672 36.99L291.05 33.805L291.063 34.871L287.657 27.175H289.217L291.349 32.193C291.392 32.2797 291.444 32.414 291.505 32.596C291.565 32.7693 291.617 32.9427 291.661 33.116L291.323 33.194C291.392 33.012 291.457 32.83 291.518 32.648C291.587 32.466 291.652 32.284 291.713 32.102L293.494 27.175H295.08L292.272 34L291.115 36.99H289.672Z" fill="#1E1E1E" fill-opacity="0.66"/>
<rect x="40.5" y="22.5" width="12" height="12" rx="1.5" stroke="#ABABAB"/>
<path d="M387 26L383.168 30.6834C383.004 30.8838 382.759 31 382.5 31V31C382.241 31 381.996 30.8838 381.832 30.6834L378 26" stroke="#ABABAB" stroke-linecap="round" stroke-linejoin="round"/>
</g>
<defs>
<filter id="filter0_d_33_58" x="0" y="0" width="404" height="85.2349" filterUnits="userSpaceOnUse" color-interpolation-filters="sRGB">
<feFlood flood-opacity="0" result="BackgroundImageFix"/>
<feColorMatrix in="SourceAlpha" type="matrix" values="0 0 0 0 0 0 0 0 0 0 0 0 0 0 0 0 0 0 127 0" result="hardAlpha"/>
<feOffset dx="-11" dy="14"/>
<feGaussianBlur stdDeviation="10"/>
<feComposite in2="hardAlpha" operator="out"/>
<feColorMatrix type="matrix" values="0 0 0 0 0 0 0 0 0 0 0 0 0 0 0 0 0 0 0.11 0"/>
<feBlend mode="normal" in2="BackgroundImageFix" result="effect1_dropShadow_33_58"/>
<feBlend mode="normal" in="SourceGraphic" in2="effect1_dropShadow_33_58" result="shape"/>
</filter>
</defs>
</svg>
