<svg width="404" height="86" viewBox="0 0 404 86" fill="none" xmlns="http://www.w3.org/2000/svg">
<g filter="url(#filter0_d_33_74)">
<rect x="31" y="6" width="364" height="45.2348" rx="8" fill="#FAFAFA"/>
<path d="M59.274 34V24.9H62.836C63.486 24.9 64.071 25.0083 64.591 25.225C65.1197 25.4417 65.5703 25.7537 65.943 26.161C66.3157 26.5683 66.6017 27.0493 66.801 27.604C67.0003 28.1587 67.1 28.774 67.1 29.45C67.1 30.126 67.0003 30.7457 66.801 31.309C66.6017 31.8637 66.3157 32.3447 65.943 32.752C65.579 33.1507 65.1327 33.4583 64.604 33.675C64.0753 33.8917 63.486 34 62.836 34H59.274ZM60.678 32.791L60.639 32.648H62.771C63.2303 32.648 63.6377 32.5743 63.993 32.427C64.357 32.2797 64.6603 32.0717 64.903 31.803C65.1543 31.5257 65.345 31.1877 65.475 30.789C65.605 30.3903 65.67 29.944 65.67 29.45C65.67 28.956 65.605 28.514 65.475 28.124C65.345 27.7253 65.1543 27.3873 64.903 27.11C64.6517 26.8327 64.3483 26.6203 63.993 26.473C63.6377 26.3257 63.2303 26.252 62.771 26.252H60.6L60.678 26.135V32.791ZM72.1186 34.13C71.4513 34.13 70.8533 33.9783 70.3246 33.675C69.8046 33.363 69.3929 32.9427 69.0896 32.414C68.7863 31.8767 68.6346 31.2657 68.6346 30.581C68.6346 29.8963 68.7863 29.2897 69.0896 28.761C69.3929 28.2237 69.8046 27.8033 70.3246 27.5C70.8533 27.188 71.4513 27.032 72.1186 27.032C72.7773 27.032 73.3666 27.188 73.8866 27.5C74.4153 27.8033 74.8313 28.2237 75.1346 28.761C75.4379 29.2897 75.5896 29.8963 75.5896 30.581C75.5896 31.2657 75.4379 31.8767 75.1346 32.414C74.8313 32.9427 74.4153 33.363 73.8866 33.675C73.3666 33.9783 72.7773 34.13 72.1186 34.13ZM72.1186 32.908C72.5259 32.908 72.8899 32.8083 73.2106 32.609C73.5313 32.401 73.7826 32.1237 73.9646 31.777C74.1466 31.4217 74.2333 31.023 74.2246 30.581C74.2333 30.1303 74.1466 29.7317 73.9646 29.385C73.7826 29.0297 73.5313 28.7523 73.2106 28.553C72.8899 28.3537 72.5259 28.254 72.1186 28.254C71.7113 28.254 71.3429 28.358 71.0136 28.566C70.6929 28.7653 70.4416 29.0427 70.2596 29.398C70.0776 29.7447 69.9909 30.139 69.9996 30.581C69.9909 31.023 70.0776 31.4217 70.2596 31.777C70.4416 32.1237 70.6929 32.401 71.0136 32.609C71.3429 32.8083 71.7113 32.908 72.1186 32.908ZM78.8618 34L76.5348 27.175L77.8868 27.162L79.5508 32.271L79.2518 32.245L81.0588 28.254H81.8648L83.6848 32.258L83.3338 32.284L85.0108 27.175H86.3628L84.0618 34H83.1388L81.2408 29.658L81.5398 29.697L79.7718 34H78.8618ZM87.9722 34V27.175H89.3112V28.579L89.0772 28.735C89.1639 28.4317 89.3329 28.1543 89.5842 27.903C89.8355 27.643 90.1345 27.435 90.4812 27.279C90.8279 27.1143 91.1832 27.032 91.5472 27.032C92.0672 27.032 92.5005 27.136 92.8472 27.344C93.1939 27.5433 93.4539 27.851 93.6272 28.267C93.8005 28.683 93.8872 29.2073 93.8872 29.84V34H92.5482V29.931C92.5482 29.541 92.4962 29.2203 92.3922 28.969C92.2882 28.709 92.1279 28.5227 91.9112 28.41C91.6945 28.2887 91.4259 28.2367 91.1052 28.254C90.8452 28.254 90.6069 28.2973 90.3902 28.384C90.1735 28.462 89.9829 28.5747 89.8182 28.722C89.6622 28.8693 89.5365 29.0427 89.4412 29.242C89.3545 29.4327 89.3112 29.6407 89.3112 29.866V34H88.6482C88.5355 34 88.4229 34 88.3102 34C88.1975 34 88.0849 34 87.9722 34ZM96.1197 34V24.38H97.4587V34H96.1197ZM102.687 34.13C102.02 34.13 101.422 33.9783 100.893 33.675C100.373 33.363 99.9617 32.9427 99.6584 32.414C99.3551 31.8767 99.2034 31.2657 99.2034 30.581C99.2034 29.8963 99.3551 29.2897 99.6584 28.761C99.9617 28.2237 100.373 27.8033 100.893 27.5C101.422 27.188 102.02 27.032 102.687 27.032C103.346 27.032 103.935 27.188 104.455 27.5C104.984 27.8033 105.4 28.2237 105.703 28.761C106.007 29.2897 106.158 29.8963 106.158 30.581C106.158 31.2657 106.007 31.8767 105.703 32.414C105.4 32.9427 104.984 33.363 104.455 33.675C103.935 33.9783 103.346 34.13 102.687 34.13ZM102.687 32.908C103.095 32.908 103.459 32.8083 103.779 32.609C104.1 32.401 104.351 32.1237 104.533 31.777C104.715 31.4217 104.802 31.023 104.793 30.581C104.802 30.1303 104.715 29.7317 104.533 29.385C104.351 29.0297 104.1 28.7523 103.779 28.553C103.459 28.3537 103.095 28.254 102.687 28.254C102.28 28.254 101.912 28.358 101.582 28.566C101.262 28.7653 101.01 29.0427 100.828 29.398C100.646 29.7447 100.56 30.139 100.568 30.581C100.56 31.023 100.646 31.4217 100.828 31.777C101.01 32.1237 101.262 32.401 101.582 32.609C101.912 32.8083 102.28 32.908 102.687 32.908ZM110.633 34.13C110.07 34.13 109.554 33.974 109.086 33.662C108.627 33.35 108.259 32.9253 107.981 32.388C107.704 31.8507 107.565 31.244 107.565 30.568C107.565 29.8833 107.704 29.2767 107.981 28.748C108.267 28.2107 108.649 27.7903 109.125 27.487C109.611 27.1837 110.152 27.032 110.75 27.032C111.106 27.032 111.431 27.084 111.725 27.188C112.02 27.292 112.276 27.4393 112.492 27.63C112.718 27.812 112.9 28.0243 113.038 28.267C113.186 28.5097 113.277 28.7697 113.311 29.047L113.012 28.943V27.175H114.364V34H113.012V32.375L113.324 32.284C113.272 32.518 113.164 32.7477 112.999 32.973C112.843 33.1897 112.64 33.3847 112.388 33.558C112.146 33.7313 111.873 33.87 111.569 33.974C111.275 34.078 110.963 34.13 110.633 34.13ZM110.984 32.895C111.392 32.895 111.751 32.7953 112.063 32.596C112.375 32.3967 112.618 32.1237 112.791 31.777C112.973 31.4217 113.064 31.0187 113.064 30.568C113.064 30.126 112.973 29.7317 112.791 29.385C112.618 29.0383 112.375 28.7653 112.063 28.566C111.751 28.3667 111.392 28.267 110.984 28.267C110.586 28.267 110.23 28.3667 109.918 28.566C109.615 28.7653 109.372 29.0383 109.19 29.385C109.017 29.7317 108.93 30.126 108.93 30.568C108.93 31.0187 109.017 31.4217 109.19 31.777C109.372 32.1237 109.615 32.3967 109.918 32.596C110.23 32.7953 110.586 32.895 110.984 32.895ZM119.471 34.13C118.847 34.13 118.288 33.9783 117.794 33.675C117.309 33.363 116.923 32.9427 116.637 32.414C116.351 31.8767 116.208 31.2657 116.208 30.581C116.208 29.8963 116.347 29.2897 116.624 28.761C116.91 28.2237 117.296 27.8033 117.781 27.5C118.266 27.188 118.817 27.032 119.432 27.032C119.77 27.032 120.095 27.0883 120.407 27.201C120.728 27.305 121.014 27.4523 121.265 27.643C121.516 27.825 121.711 28.0287 121.85 28.254C121.997 28.4707 122.071 28.6917 122.071 28.917L121.681 28.943V24.38H123.02V34H121.681V32.375H121.941C121.941 32.583 121.872 32.791 121.733 32.999C121.594 33.1983 121.408 33.3847 121.174 33.558C120.949 33.7313 120.684 33.87 120.381 33.974C120.086 34.078 119.783 34.13 119.471 34.13ZM119.653 32.973C120.06 32.973 120.42 32.869 120.732 32.661C121.044 32.453 121.287 32.1713 121.46 31.816C121.642 31.452 121.733 31.0403 121.733 30.581C121.733 30.1217 121.642 29.7143 121.46 29.359C121.287 28.995 121.044 28.709 120.732 28.501C120.42 28.293 120.06 28.189 119.653 28.189C119.246 28.189 118.886 28.293 118.574 28.501C118.262 28.709 118.015 28.995 117.833 29.359C117.66 29.7143 117.573 30.1217 117.573 30.581C117.573 31.0403 117.66 31.452 117.833 31.816C118.015 32.1713 118.262 32.453 118.574 32.661C118.886 32.869 119.246 32.973 119.653 32.973ZM131.354 34V26.252H128.806V24.9H135.384V26.252H132.758V34H131.354ZM138.94 34.13C138.273 34.13 137.675 33.9783 137.146 33.675C136.626 33.363 136.214 32.9427 135.911 32.414C135.608 31.8767 135.456 31.2657 135.456 30.581C135.456 29.8963 135.608 29.2897 135.911 28.761C136.214 28.2237 136.626 27.8033 137.146 27.5C137.675 27.188 138.273 27.032 138.94 27.032C139.599 27.032 140.188 27.188 140.708 27.5C141.237 27.8033 141.653 28.2237 141.956 28.761C142.259 29.2897 142.411 29.8963 142.411 30.581C142.411 31.2657 142.259 31.8767 141.956 32.414C141.653 32.9427 141.237 33.363 140.708 33.675C140.188 33.9783 139.599 34.13 138.94 34.13ZM138.94 32.908C139.347 32.908 139.711 32.8083 140.032 32.609C140.353 32.401 140.604 32.1237 140.786 31.777C140.968 31.4217 141.055 31.023 141.046 30.581C141.055 30.1303 140.968 29.7317 140.786 29.385C140.604 29.0297 140.353 28.7523 140.032 28.553C139.711 28.3537 139.347 28.254 138.94 28.254C138.533 28.254 138.164 28.358 137.835 28.566C137.514 28.7653 137.263 29.0427 137.081 29.398C136.899 29.7447 136.812 30.139 136.821 30.581C136.812 31.023 136.899 31.4217 137.081 31.777C137.263 32.1237 137.514 32.401 137.835 32.609C138.164 32.8083 138.533 32.908 138.94 32.908ZM147.328 34.13C146.661 34.13 146.063 33.9783 145.534 33.675C145.014 33.363 144.603 32.9427 144.299 32.414C143.996 31.8767 143.844 31.2657 143.844 30.581C143.844 29.8963 143.996 29.2897 144.299 28.761C144.603 28.2237 145.014 27.8033 145.534 27.5C146.063 27.188 146.661 27.032 147.328 27.032C147.987 27.032 148.576 27.188 149.096 27.5C149.625 27.8033 150.041 28.2237 150.344 28.761C150.648 29.2897 150.799 29.8963 150.799 30.581C150.799 31.2657 150.648 31.8767 150.344 32.414C150.041 32.9427 149.625 33.363 149.096 33.675C148.576 33.9783 147.987 34.13 147.328 34.13ZM147.328 32.908C147.736 32.908 148.1 32.8083 148.42 32.609C148.741 32.401 148.992 32.1237 149.174 31.777C149.356 31.4217 149.443 31.023 149.434 30.581C149.443 30.1303 149.356 29.7317 149.174 29.385C148.992 29.0297 148.741 28.7523 148.42 28.553C148.1 28.3537 147.736 28.254 147.328 28.254C146.921 28.254 146.553 28.358 146.223 28.566C145.903 28.7653 145.651 29.0427 145.469 29.398C145.287 29.7447 145.201 30.139 145.209 30.581C145.201 31.023 145.287 31.4217 145.469 31.777C145.651 32.1237 145.903 32.401 146.223 32.609C146.553 32.8083 146.921 32.908 147.328 32.908ZM155.495 34.13C154.871 34.13 154.312 33.9783 153.818 33.675C153.333 33.363 152.947 32.9427 152.661 32.414C152.375 31.8767 152.232 31.2657 152.232 30.581C152.232 29.8963 152.371 29.2897 152.648 28.761C152.934 28.2237 153.32 27.8033 153.805 27.5C154.291 27.188 154.841 27.032 155.456 27.032C155.794 27.032 156.119 27.0883 156.431 27.201C156.752 27.305 157.038 27.4523 157.289 27.643C157.541 27.825 157.736 28.0287 157.874 28.254C158.022 28.4707 158.095 28.6917 158.095 28.917L157.705 28.943V24.38H159.044V34H157.705V32.375H157.965C157.965 32.583 157.896 32.791 157.757 32.999C157.619 33.1983 157.432 33.3847 157.198 33.558C156.973 33.7313 156.709 33.87 156.405 33.974C156.111 34.078 155.807 34.13 155.495 34.13ZM155.677 32.973C156.085 32.973 156.444 32.869 156.756 32.661C157.068 32.453 157.311 32.1713 157.484 31.816C157.666 31.452 157.757 31.0403 157.757 30.581C157.757 30.1217 157.666 29.7143 157.484 29.359C157.311 28.995 157.068 28.709 156.756 28.501C156.444 28.293 156.085 28.189 155.677 28.189C155.27 28.189 154.91 28.293 154.598 28.501C154.286 28.709 154.039 28.995 153.857 29.359C153.684 29.7143 153.597 30.1217 153.597 30.581C153.597 31.0403 153.684 31.452 153.857 31.816C154.039 32.1713 154.286 32.453 154.598 32.661C154.91 32.869 155.27 32.973 155.677 32.973ZM161.303 34V24.38H162.642V34H161.303ZM165.884 36.99L167.262 33.805L167.275 34.871L163.869 27.175H165.429L167.561 32.193C167.604 32.2797 167.656 32.414 167.717 32.596C167.777 32.7693 167.829 32.9427 167.873 33.116L167.535 33.194C167.604 33.012 167.669 32.83 167.73 32.648C167.799 32.466 167.864 32.284 167.925 32.102L169.706 27.175H171.292L168.484 34L167.327 36.99H165.884ZM180.591 34.078C179.889 34.078 179.261 33.9263 178.706 33.623C178.151 33.311 177.714 32.8863 177.393 32.349C177.081 31.803 176.925 31.1877 176.925 30.503V24.887H178.329V30.386C178.329 30.828 178.433 31.2267 178.641 31.582C178.849 31.9287 179.122 32.206 179.46 32.414C179.807 32.622 180.184 32.726 180.591 32.726C181.024 32.726 181.414 32.622 181.761 32.414C182.116 32.206 182.398 31.9287 182.606 31.582C182.814 31.2267 182.918 30.828 182.918 30.386V24.887H184.257V30.503C184.257 31.1877 184.097 31.803 183.776 32.349C183.464 32.8863 183.031 33.311 182.476 33.623C181.921 33.9263 181.293 34.078 180.591 34.078ZM186.73 36.86V27.175H188.082V28.735L187.874 28.618C187.926 28.358 188.073 28.111 188.316 27.877C188.559 27.6343 188.853 27.4393 189.2 27.292C189.555 27.136 189.919 27.058 190.292 27.058C190.907 27.058 191.453 27.2097 191.93 27.513C192.407 27.8163 192.784 28.2323 193.061 28.761C193.338 29.2897 193.477 29.8963 193.477 30.581C193.477 31.257 193.338 31.8637 193.061 32.401C192.792 32.9297 192.42 33.35 191.943 33.662C191.466 33.9653 190.929 34.117 190.331 34.117C189.932 34.117 189.547 34.039 189.174 33.883C188.801 33.7183 188.485 33.5103 188.225 33.259C187.965 33.0077 187.805 32.7477 187.744 32.479L188.082 32.297V36.86H186.73ZM190.11 32.882C190.509 32.882 190.864 32.7823 191.176 32.583C191.488 32.3837 191.735 32.1107 191.917 31.764C192.099 31.4173 192.19 31.023 192.19 30.581C192.19 30.139 192.099 29.749 191.917 29.411C191.744 29.0643 191.501 28.7913 191.189 28.592C190.877 28.3927 190.517 28.293 190.11 28.293C189.703 28.293 189.343 28.3927 189.031 28.592C188.719 28.7827 188.472 29.0513 188.29 29.398C188.108 29.7447 188.017 30.139 188.017 30.581C188.017 31.023 188.108 31.4173 188.29 31.764C188.472 32.1107 188.719 32.3837 189.031 32.583C189.343 32.7823 189.703 32.882 190.11 32.882ZM198.168 34.13C197.544 34.13 196.985 33.9783 196.491 33.675C196.006 33.363 195.62 32.9427 195.334 32.414C195.048 31.8767 194.905 31.2657 194.905 30.581C194.905 29.8963 195.044 29.2897 195.321 28.761C195.607 28.2237 195.993 27.8033 196.478 27.5C196.964 27.188 197.514 27.032 198.129 27.032C198.467 27.032 198.792 27.0883 199.104 27.201C199.425 27.305 199.711 27.4523 199.962 27.643C200.214 27.825 200.409 28.0287 200.547 28.254C200.695 28.4707 200.768 28.6917 200.768 28.917L200.378 28.943V24.38H201.717V34H200.378V32.375H200.638C200.638 32.583 200.569 32.791 200.43 32.999C200.292 33.1983 200.105 33.3847 199.871 33.558C199.646 33.7313 199.382 33.87 199.078 33.974C198.784 34.078 198.48 34.13 198.168 34.13ZM198.35 32.973C198.758 32.973 199.117 32.869 199.429 32.661C199.741 32.453 199.984 32.1713 200.157 31.816C200.339 31.452 200.43 31.0403 200.43 30.581C200.43 30.1217 200.339 29.7143 200.157 29.359C199.984 28.995 199.741 28.709 199.429 28.501C199.117 28.293 198.758 28.189 198.35 28.189C197.943 28.189 197.583 28.293 197.271 28.501C196.959 28.709 196.712 28.995 196.53 29.359C196.357 29.7143 196.27 30.1217 196.27 30.581C196.27 31.0403 196.357 31.452 196.53 31.816C196.712 32.1713 196.959 32.453 197.271 32.661C197.583 32.869 197.943 32.973 198.35 32.973ZM206.576 34.13C206.013 34.13 205.497 33.974 205.029 33.662C204.57 33.35 204.202 32.9253 203.924 32.388C203.647 31.8507 203.508 31.244 203.508 30.568C203.508 29.8833 203.647 29.2767 203.924 28.748C204.21 28.2107 204.592 27.7903 205.068 27.487C205.554 27.1837 206.095 27.032 206.693 27.032C207.049 27.032 207.374 27.084 207.668 27.188C207.963 27.292 208.219 27.4393 208.435 27.63C208.661 27.812 208.843 28.0243 208.981 28.267C209.129 28.5097 209.22 28.7697 209.254 29.047L208.955 28.943V27.175H210.307V34H208.955V32.375L209.267 32.284C209.215 32.518 209.107 32.7477 208.942 32.973C208.786 33.1897 208.583 33.3847 208.331 33.558C208.089 33.7313 207.816 33.87 207.512 33.974C207.218 34.078 206.906 34.13 206.576 34.13ZM206.927 32.895C207.335 32.895 207.694 32.7953 208.006 32.596C208.318 32.3967 208.561 32.1237 208.734 31.777C208.916 31.4217 209.007 31.0187 209.007 30.568C209.007 30.126 208.916 29.7317 208.734 29.385C208.561 29.0383 208.318 28.7653 208.006 28.566C207.694 28.3667 207.335 28.267 206.927 28.267C206.529 28.267 206.173 28.3667 205.861 28.566C205.558 28.7653 205.315 29.0383 205.133 29.385C204.96 29.7317 204.873 30.126 204.873 30.568C204.873 31.0187 204.96 31.4217 205.133 31.777C205.315 32.1237 205.558 32.3967 205.861 32.596C206.173 32.7953 206.529 32.895 206.927 32.895ZM213.412 34V25.433H214.751V34H213.412ZM211.995 28.475V27.175H216.337V28.475H211.995ZM221.068 34.13C220.366 34.13 219.742 33.9827 219.196 33.688C218.659 33.3847 218.234 32.973 217.922 32.453C217.619 31.933 217.467 31.335 217.467 30.659C217.467 30.1217 217.554 29.632 217.727 29.19C217.9 28.748 218.139 28.3667 218.442 28.046C218.754 27.7167 219.122 27.4653 219.547 27.292C219.98 27.11 220.448 27.019 220.951 27.019C221.393 27.019 221.805 27.1057 222.186 27.279C222.567 27.4437 222.897 27.6733 223.174 27.968C223.46 28.2627 223.677 28.6137 223.824 29.021C223.98 29.4197 224.054 29.8573 224.045 30.334L224.032 30.906H218.455L218.156 29.84H222.875L222.68 30.061V29.749C222.654 29.463 222.559 29.2073 222.394 28.982C222.229 28.7567 222.021 28.579 221.77 28.449C221.519 28.319 221.246 28.254 220.951 28.254C220.483 28.254 220.089 28.345 219.768 28.527C219.447 28.7003 219.205 28.9603 219.04 29.307C218.875 29.645 218.793 30.0653 218.793 30.568C218.793 31.0447 218.893 31.4607 219.092 31.816C219.291 32.1627 219.573 32.4313 219.937 32.622C220.301 32.8127 220.721 32.908 221.198 32.908C221.536 32.908 221.848 32.8517 222.134 32.739C222.429 32.6263 222.745 32.4227 223.083 32.128L223.759 33.077C223.551 33.285 223.295 33.467 222.992 33.623C222.697 33.779 222.381 33.9047 222.043 34C221.714 34.0867 221.389 34.13 221.068 34.13ZM228.165 34.13C227.593 34.13 227.077 34.0303 226.618 33.831C226.159 33.6317 225.777 33.337 225.474 32.947L226.384 32.167C226.644 32.4703 226.926 32.6913 227.229 32.83C227.541 32.96 227.892 33.025 228.282 33.025C228.438 33.025 228.581 33.0077 228.711 32.973C228.85 32.9297 228.967 32.869 229.062 32.791C229.166 32.713 229.244 32.622 229.296 32.518C229.348 32.4053 229.374 32.284 229.374 32.154C229.374 31.9287 229.292 31.7467 229.127 31.608C229.04 31.5473 228.902 31.4823 228.711 31.413C228.529 31.335 228.291 31.257 227.996 31.179C227.493 31.049 227.082 30.9017 226.761 30.737C226.44 30.5723 226.193 30.386 226.02 30.178C225.89 30.0133 225.795 29.8357 225.734 29.645C225.673 29.4457 225.643 29.229 225.643 28.995C225.643 28.709 225.704 28.449 225.825 28.215C225.955 27.9723 226.128 27.7643 226.345 27.591C226.57 27.409 226.83 27.2703 227.125 27.175C227.428 27.0797 227.749 27.032 228.087 27.032C228.408 27.032 228.724 27.0753 229.036 27.162C229.357 27.2487 229.651 27.3743 229.92 27.539C230.189 27.7037 230.414 27.8987 230.596 28.124L229.829 28.969C229.664 28.8043 229.482 28.6613 229.283 28.54C229.092 28.41 228.897 28.3103 228.698 28.241C228.499 28.1717 228.317 28.137 228.152 28.137C227.97 28.137 227.805 28.1543 227.658 28.189C227.511 28.2237 227.385 28.2757 227.281 28.345C227.186 28.4143 227.112 28.501 227.06 28.605C227.008 28.709 226.982 28.826 226.982 28.956C226.991 29.0687 227.017 29.177 227.06 29.281C227.112 29.3763 227.181 29.4587 227.268 29.528C227.363 29.5973 227.506 29.671 227.697 29.749C227.888 29.827 228.13 29.9007 228.425 29.97C228.858 30.0827 229.214 30.2083 229.491 30.347C229.777 30.477 230.002 30.6287 230.167 30.802C230.34 30.9667 230.462 31.1573 230.531 31.374C230.6 31.5907 230.635 31.8333 230.635 32.102C230.635 32.492 230.522 32.843 230.297 33.155C230.08 33.4583 229.786 33.6967 229.413 33.87C229.04 34.0433 228.624 34.13 228.165 34.13Z" fill="#1E1E1E" fill-opacity="0.66"/>
<rect x="40.5" y="22.5" width="12" height="12" rx="1.5" stroke="#ABABAB"/>
<path d="M387 26L383.168 30.6834C383.004 30.8838 382.759 31 382.5 31V31C382.241 31 381.996 30.8838 381.832 30.6834L378 26" stroke="#ABABAB" stroke-linecap="round" stroke-linejoin="round"/>
</g>
<defs>
<filter id="filter0_d_33_74" x="0" y="0" width="404" height="85.2349" filterUnits="userSpaceOnUse" color-interpolation-filters="sRGB">
<feFlood flood-opacity="0" result="BackgroundImageFix"/>
<feColorMatrix in="SourceAlpha" type="matrix" values="0 0 0 0 0 0 0 0 0 0 0 0 0 0 0 0 0 0 127 0" result="hardAlpha"/>
<feOffset dx="-11" dy="14"/>
<feGaussianBlur stdDeviation="10"/>
<feComposite in2="hardAlpha" operator="out"/>
<feColorMatrix type="matrix" values="0 0 0 0 0 0 0 0 0 0 0 0 0 0 0 0 0 0 0.11 0"/>
<feBlend mode="normal" in2="BackgroundImageFix" result="effect1_dropShadow_33_74"/>
<feBlend mode="normal" in="SourceGraphic" in2="effect1_dropShadow_33_74" result="shape"/>
</filter>
</defs>
</svg>
