<svg width="338" height="84" viewBox="0 0 338 84" fill="none" xmlns="http://www.w3.org/2000/svg">
<g filter="url(#filter0_d_33_32)">
<rect x="31" y="5" width="298" height="44" rx="8" fill="#EBEBEB"/>
<path d="M63.55 33.09C62.74 33.09 62.015 32.915 61.375 32.565C60.735 32.205 60.23 31.715 59.86 31.095C59.5 30.465 59.32 29.755 59.32 28.965V22.485H60.94V28.83C60.94 29.34 61.06 29.8 61.3 30.21C61.54 30.61 61.855 30.93 62.245 31.17C62.645 31.41 63.08 31.53 63.55 31.53C64.05 31.53 64.5 31.41 64.9 31.17C65.31 30.93 65.635 30.61 65.875 30.21C66.115 29.8 66.235 29.34 66.235 28.83V22.485H67.78V28.965C67.78 29.755 67.595 30.465 67.225 31.095C66.865 31.715 66.365 32.205 65.725 32.565C65.085 32.915 64.36 33.09 63.55 33.09ZM70.6335 36.3V25.125H72.1935V26.925L71.9535 26.79C72.0135 26.49 72.1835 26.205 72.4635 25.935C72.7435 25.655 73.0835 25.43 73.4835 25.26C73.8935 25.08 74.3135 24.99 74.7435 24.99C75.4535 24.99 76.0835 25.165 76.6335 25.515C77.1835 25.865 77.6185 26.345 77.9385 26.955C78.2585 27.565 78.4185 28.265 78.4185 29.055C78.4185 29.835 78.2585 30.535 77.9385 31.155C77.6285 31.765 77.1985 32.25 76.6485 32.61C76.0985 32.96 75.4785 33.135 74.7885 33.135C74.3285 33.135 73.8835 33.045 73.4535 32.865C73.0235 32.675 72.6585 32.435 72.3585 32.145C72.0585 31.855 71.8735 31.555 71.8035 31.245L72.1935 31.035V36.3H70.6335ZM74.5335 31.71C74.9935 31.71 75.4035 31.595 75.7635 31.365C76.1235 31.135 76.4085 30.82 76.6185 30.42C76.8285 30.02 76.9335 29.565 76.9335 29.055C76.9335 28.545 76.8285 28.095 76.6185 27.705C76.4185 27.305 76.1385 26.99 75.7785 26.76C75.4185 26.53 75.0035 26.415 74.5335 26.415C74.0635 26.415 73.6485 26.53 73.2885 26.76C72.9285 26.98 72.6435 27.29 72.4335 27.69C72.2235 28.09 72.1185 28.545 72.1185 29.055C72.1185 29.565 72.2235 30.02 72.4335 30.42C72.6435 30.82 72.9285 31.135 73.2885 31.365C73.6485 31.595 74.0635 31.71 74.5335 31.71ZM83.8914 33.15C83.1614 33.15 82.5064 32.97 81.9264 32.61C81.3564 32.25 80.9014 31.76 80.5614 31.14C80.2314 30.52 80.0664 29.825 80.0664 29.055C80.0664 28.285 80.2314 27.59 80.5614 26.97C80.9014 26.35 81.3564 25.86 81.9264 25.5C82.5064 25.14 83.1614 24.96 83.8914 24.96C84.5914 24.96 85.2264 25.105 85.7964 25.395C86.3764 25.675 86.8164 26.06 87.1164 26.55L86.2614 27.6C86.1014 27.37 85.8964 27.16 85.6464 26.97C85.3964 26.78 85.1314 26.63 84.8514 26.52C84.5714 26.41 84.3014 26.355 84.0414 26.355C83.5614 26.355 83.1314 26.475 82.7514 26.715C82.3814 26.945 82.0864 27.265 81.8664 27.675C81.6464 28.085 81.5364 28.545 81.5364 29.055C81.5364 29.565 81.6514 30.025 81.8814 30.435C82.1114 30.835 82.4164 31.155 82.7964 31.395C83.1764 31.635 83.5964 31.755 84.0564 31.755C84.3264 31.755 84.5864 31.71 84.8364 31.62C85.0964 31.53 85.3464 31.395 85.5864 31.215C85.8264 31.035 86.0514 30.815 86.2614 30.555L87.1164 31.605C86.7964 32.055 86.3364 32.425 85.7364 32.715C85.1464 33.005 84.5314 33.15 83.8914 33.15ZM92.5638 33.15C91.7938 33.15 91.1038 32.975 90.4938 32.625C89.8938 32.265 89.4188 31.78 89.0688 31.17C88.7188 30.55 88.5438 29.845 88.5438 29.055C88.5438 28.265 88.7188 27.565 89.0688 26.955C89.4188 26.335 89.8938 25.85 90.4938 25.5C91.1038 25.14 91.7938 24.96 92.5638 24.96C93.3238 24.96 94.0038 25.14 94.6038 25.5C95.2138 25.85 95.6938 26.335 96.0438 26.955C96.3938 27.565 96.5688 28.265 96.5688 29.055C96.5688 29.845 96.3938 30.55 96.0438 31.17C95.6938 31.78 95.2138 32.265 94.6038 32.625C94.0038 32.975 93.3238 33.15 92.5638 33.15ZM92.5638 31.74C93.0338 31.74 93.4538 31.625 93.8238 31.395C94.1938 31.155 94.4838 30.835 94.6938 30.435C94.9038 30.025 95.0038 29.565 94.9938 29.055C95.0038 28.535 94.9038 28.075 94.6938 27.675C94.4838 27.265 94.1938 26.945 93.8238 26.715C93.4538 26.485 93.0338 26.37 92.5638 26.37C92.0938 26.37 91.6688 26.49 91.2888 26.73C90.9188 26.96 90.6288 27.28 90.4188 27.69C90.2088 28.09 90.1088 28.545 90.1188 29.055C90.1088 29.565 90.2088 30.025 90.4188 30.435C90.6288 30.835 90.9188 31.155 91.2888 31.395C91.6688 31.625 92.0938 31.74 92.5638 31.74ZM98.6723 33V25.125H100.232V26.805L99.9473 26.985C100.027 26.725 100.152 26.475 100.322 26.235C100.502 25.995 100.717 25.785 100.967 25.605C101.227 25.415 101.502 25.265 101.792 25.155C102.092 25.045 102.397 24.99 102.707 24.99C103.157 24.99 103.552 25.065 103.892 25.215C104.232 25.365 104.512 25.59 104.732 25.89C104.952 26.19 105.112 26.565 105.212 27.015L104.972 26.955L105.077 26.7C105.187 26.47 105.337 26.255 105.527 26.055C105.727 25.845 105.952 25.66 106.202 25.5C106.452 25.34 106.717 25.215 106.997 25.125C107.277 25.035 107.552 24.99 107.822 24.99C108.412 24.99 108.897 25.11 109.277 25.35C109.667 25.59 109.957 25.955 110.147 26.445C110.347 26.935 110.447 27.545 110.447 28.275V33H108.887V28.365C108.887 27.915 108.827 27.55 108.707 27.27C108.597 26.98 108.427 26.765 108.197 26.625C107.967 26.485 107.672 26.415 107.312 26.415C107.032 26.415 106.767 26.465 106.517 26.565C106.277 26.655 106.067 26.785 105.887 26.955C105.707 27.125 105.567 27.325 105.467 27.555C105.367 27.775 105.317 28.02 105.317 28.29V33H103.757V28.335C103.757 27.925 103.697 27.58 103.577 27.3C103.457 27.01 103.282 26.79 103.052 26.64C102.822 26.49 102.542 26.415 102.212 26.415C101.932 26.415 101.672 26.465 101.432 26.565C101.192 26.655 100.982 26.785 100.802 26.955C100.622 27.115 100.482 27.31 100.382 27.54C100.282 27.76 100.232 28 100.232 28.26V33H98.6723ZM113.221 33V25.125H114.766V33H113.221ZM113.971 23.385C113.641 23.385 113.386 23.3 113.206 23.13C113.026 22.96 112.936 22.72 112.936 22.41C112.936 22.12 113.026 21.885 113.206 21.705C113.396 21.525 113.651 21.435 113.971 21.435C114.301 21.435 114.556 21.52 114.736 21.69C114.916 21.86 115.006 22.1 115.006 22.41C115.006 22.7 114.911 22.935 114.721 23.115C114.541 23.295 114.291 23.385 113.971 23.385ZM117.591 33V25.125H119.136V26.745L118.866 26.925C118.966 26.575 119.161 26.255 119.451 25.965C119.741 25.665 120.086 25.425 120.486 25.245C120.886 25.055 121.296 24.96 121.716 24.96C122.316 24.96 122.816 25.08 123.216 25.32C123.616 25.55 123.916 25.905 124.116 26.385C124.316 26.865 124.416 27.47 124.416 28.2V33H122.871V28.305C122.871 27.855 122.811 27.485 122.691 27.195C122.571 26.895 122.386 26.68 122.136 26.55C121.886 26.41 121.576 26.35 121.206 26.37C120.906 26.37 120.631 26.42 120.381 26.52C120.131 26.61 119.911 26.74 119.721 26.91C119.541 27.08 119.396 27.28 119.286 27.51C119.186 27.73 119.136 27.97 119.136 28.23V33H118.371C118.241 33 118.111 33 117.981 33C117.851 33 117.721 33 117.591 33ZM130.486 36.45C129.926 36.45 129.366 36.36 128.806 36.18C128.256 36.01 127.811 35.785 127.471 35.505L128.041 34.305C128.241 34.455 128.476 34.585 128.746 34.695C129.016 34.815 129.301 34.905 129.601 34.965C129.901 35.035 130.196 35.07 130.486 35.07C131.036 35.07 131.496 34.98 131.866 34.8C132.236 34.62 132.516 34.355 132.706 34.005C132.896 33.655 132.991 33.22 132.991 32.7V31.185L133.156 31.29C133.106 31.6 132.941 31.9 132.661 32.19C132.391 32.47 132.051 32.7 131.641 32.88C131.231 33.06 130.811 33.15 130.381 33.15C129.631 33.15 128.961 32.975 128.371 32.625C127.791 32.265 127.331 31.78 126.991 31.17C126.651 30.55 126.481 29.845 126.481 29.055C126.481 28.265 126.646 27.565 126.976 26.955C127.316 26.335 127.776 25.85 128.356 25.5C128.946 25.14 129.606 24.96 130.336 24.96C130.636 24.96 130.926 25 131.206 25.08C131.486 25.15 131.746 25.255 131.986 25.395C132.226 25.525 132.441 25.67 132.631 25.83C132.821 25.99 132.976 26.16 133.096 26.34C133.216 26.52 133.291 26.69 133.321 26.85L132.991 26.97V25.125H134.536V32.52C134.536 33.15 134.441 33.705 134.251 34.185C134.071 34.675 133.806 35.085 133.456 35.415C133.106 35.755 132.681 36.01 132.181 36.18C131.681 36.36 131.116 36.45 130.486 36.45ZM130.546 31.725C131.036 31.725 131.471 31.61 131.851 31.38C132.231 31.15 132.526 30.835 132.736 30.435C132.946 30.035 133.051 29.575 133.051 29.055C133.051 28.535 132.941 28.075 132.721 27.675C132.511 27.265 132.216 26.945 131.836 26.715C131.466 26.485 131.036 26.37 130.546 26.37C130.066 26.37 129.636 26.49 129.256 26.73C128.886 26.96 128.591 27.28 128.371 27.69C128.161 28.09 128.056 28.545 128.056 29.055C128.056 29.565 128.161 30.025 128.371 30.435C128.591 30.835 128.886 31.15 129.256 31.38C129.636 31.61 130.066 31.725 130.546 31.725Z" fill="#4E4444"/>
<rect opacity="0.9" x="293" y="19" width="24" height="16" rx="6" fill="#FAFAFA"/>
<path d="M304.28 31L304.24 30.9L306.32 26.48L306.35 27.31C306.23 27.51 306.097 27.6867 305.95 27.84C305.81 27.9933 305.653 28.1267 305.48 28.24C305.313 28.3467 305.14 28.43 304.96 28.49C304.78 28.5433 304.597 28.57 304.41 28.57C304.03 28.57 303.68 28.47 303.36 28.27C303.04 28.07 302.783 27.8033 302.59 27.47C302.397 27.1367 302.3 26.7733 302.3 26.38C302.3 25.9067 302.407 25.4833 302.62 25.11C302.833 24.73 303.123 24.43 303.49 24.21C303.863 23.99 304.28 23.88 304.74 23.88C305.073 23.88 305.387 23.94 305.68 24.06C305.973 24.18 306.23 24.35 306.45 24.57C306.67 24.7833 306.843 25.0333 306.97 25.32C307.097 25.6 307.16 25.9 307.16 26.22C307.16 26.3867 307.143 26.5667 307.11 26.76C307.077 26.9467 307.02 27.16 306.94 27.4C306.867 27.6333 306.767 27.9033 306.64 28.21C306.513 28.51 306.357 28.86 306.17 29.26L305.34 31H304.28ZM304.64 27.57C304.9 27.57 305.133 27.5133 305.34 27.4C305.547 27.28 305.707 27.1233 305.82 26.93C305.94 26.73 306 26.5067 306 26.26C306 26 305.943 25.7667 305.83 25.56C305.717 25.3467 305.557 25.18 305.35 25.06C305.15 24.94 304.92 24.88 304.66 24.88C304.42 24.88 304.207 24.94 304.02 25.06C303.833 25.1733 303.683 25.3333 303.57 25.54C303.463 25.74 303.41 25.9767 303.41 26.25C303.41 26.4833 303.463 26.7 303.57 26.9C303.683 27.1 303.833 27.2633 304.02 27.39C304.207 27.51 304.413 27.57 304.64 27.57Z" fill="#4E4444"/>
<path d="M48.5 22L49.799 24.25H47.201L48.5 22Z" fill="#4E4444" stroke="#444444" stroke-width="0.5"/>
<path d="M43.5 24L44.799 26.25H42.201L43.5 24Z" fill="#4E4444" stroke="#444444" stroke-width="0.5"/>
<path d="M48 24H49V32H48V24Z" fill="#4E4444" stroke="#444444" stroke-width="0.5"/>
<path d="M49 31L49 32L43 32L43 31L49 31Z" fill="#4E4444" stroke="#444444" stroke-width="0.5"/>
<path d="M43 26H44V32H43V26Z" fill="#4E4444" stroke="#444444" stroke-width="0.5"/>
</g>
<defs>
<filter id="filter0_d_33_32" x="0" y="0" width="338" height="84" filterUnits="userSpaceOnUse" color-interpolation-filters="sRGB">
<feFlood flood-opacity="0" result="BackgroundImageFix"/>
<feColorMatrix in="SourceAlpha" type="matrix" values="0 0 0 0 0 0 0 0 0 0 0 0 0 0 0 0 0 0 127 0" result="hardAlpha"/>
<feOffset dx="-11" dy="15"/>
<feGaussianBlur stdDeviation="10"/>
<feComposite in2="hardAlpha" operator="out"/>
<feColorMatrix type="matrix" values="0 0 0 0 0 0 0 0 0 0 0 0 0 0 0 0 0 0 0.11 0"/>
<feBlend mode="normal" in2="BackgroundImageFix" result="effect1_dropShadow_33_32"/>
<feBlend mode="normal" in="SourceGraphic" in2="effect1_dropShadow_33_32" result="shape"/>
</filter>
</defs>
</svg>
